<svg width="48" height="41" viewBox="0 0 48 41" fill="none" xmlns="http://www.w3.org/2000/svg">
<path d="M2.31278 1.56126C2.85839 10.7918 3.5116 17.8479 11.9722 22.8292C16.0105 25.2069 20.5454 24.8646 24.0348 21.5457C30.3846 15.5061 17.1931 10.5884 15.0921 17.2544C11.2405 29.4746 26.7495 35.458 36.2645 34.5889C39.0373 34.3356 42.1868 33.9958 44.8902 33.4459C47.2352 32.9688 44.6455 34.2875 43.878 34.7975C42.4562 35.7423 41.4397 36.9761 40.0499 37.8996C37.618 39.5157 39.7694 37.7389 40.9225 37.0608C44.23 35.1158 47.531 34.189 43.1466 31.4455C42.2642 30.8933 37.9813 27.7116 38.0846 28.4651C38.3773 30.6015 37.6089 33.2612 37.9969 35.2302C38.5279 37.9254 37.9936 39.6226 38.8477 35.6229C39.1263 34.3178 39.2094 33.0829 39.4235 31.7962C39.7765 29.6758 39.8072 32.5512 39.6879 32.8174C39.3412 33.5907 39.5548 35.4105 39.8696 33.5195C39.9506 33.0327 39.9756 31.0349 40.1256 31.6145C40.5993 33.4444 39.3949 36.3253 40.4764 35.3375C41.3852 34.5074 41.3612 33.7423 40.9975 32.6147C40.8737 32.2308 39.3807 31.1045 39.5512 31.7632" stroke="#FB6930" stroke-width="3" stroke-linecap="round"/>
</svg>
