<svg width="115" height="23" viewBox="0 0 115 23" fill="none" xmlns="http://www.w3.org/2000/svg">
<g clip-path="url(#clip0_2625_1825)">
<path d="M40.7188 7.81618C35.348 6.88309 32.5507 7.39296 28.6649 8.4943C28.9396 6.09794 30.501 4.62443 34.1324 4.64992C38.1707 4.68051 42.2039 5.13429 47.1577 5.4657C46.5219 3.81884 46.227 1.48876 45.4691 1.3256C40.1746 0.198801 34.7732 -0.713856 29.3871 0.774949C24.7487 2.05981 22.4447 5.4912 22.2413 11.0079C22.0429 16.4278 23.8078 19.798 28.019 21.2613C33.0389 23.0051 38.186 22.9796 43.2465 21.3531C45.5047 20.6291 47.2391 19.1862 47.8748 16.6878C49.065 12.0226 45.4691 8.64147 40.7188 7.81618ZM40.2712 17.1518C38.7238 18.4366 35.231 18.1868 35.231 18.1868C35.231 18.1868 31.9917 18.3484 30.4145 17.2589C29.2413 16.4484 28.2631 15.4285 28.1665 14.3781C28.0902 13.5012 28.3598 12.5529 30.2009 11.63C32.0421 10.7071 36.9907 10.3247 40.3017 11.6351C41.1511 11.9767 42.0372 13.0244 42.0869 14.266C42.1403 15.5973 41.2949 16.3019 40.2712 17.1518Z" fill="#101010"/>
<path d="M70.0345 1.12176C65.5639 -0.382339 61.017 -0.346648 56.5464 1.14216C53.5507 2.14149 51.3943 4.17585 50.5907 7.29113C49.0343 13.3585 50.3109 20.8841 59.598 22.1588C60.8492 22.327 62.1156 22.429 63.9872 22.6279C65.6707 22.2964 67.9747 22.0823 70.1159 21.3736C74.4644 19.9256 76.6921 16.2902 76.6769 11.2222C76.6616 6.14903 74.4085 2.59527 70.0345 1.12176ZM63.3922 17.7994C58.5198 17.8249 55.8547 15.449 55.9056 11.1355C55.9513 6.98011 58.6062 4.73161 63.4125 4.77239C68.229 4.81318 70.772 7.06679 70.7618 11.2885C70.7516 15.4898 68.1629 17.7739 63.3922 17.7994Z" fill="#101010"/>
<path d="M98.3179 1.04017C93.9999 -0.346667 89.631 -0.300779 85.3129 1.07076C82.1087 2.09049 79.815 4.22172 79.0775 7.55624C77.6585 13.9652 79.1283 20.879 88.1764 22.1588C89.4326 22.3372 90.699 22.429 92.5402 22.6227C94.1626 22.3117 96.3801 22.1027 98.4501 21.4399C102.961 19.9918 105.245 16.382 105.225 11.1967C105.204 6.02154 102.875 2.50348 98.3179 1.04017ZM91.6756 17.7994C86.9303 17.6974 84.3771 15.3419 84.4331 11.1253C84.4941 6.98519 87.1744 4.73159 91.9756 4.77747C96.8073 4.82336 99.3097 7.05147 99.2944 11.2935C99.2842 15.5815 96.5632 17.9014 91.6756 17.7994Z" fill="#101010"/>
<path d="M13.4017 0.581299H7.7867C6.95768 5.04771 3.03635 4.16055 0 4.80298V9.60081C2.72102 9.02466 5.07585 8.51989 7.44085 8.02023V17.5904H0.0356021V21.8936H21.1426V17.361H13.4017V0.581299Z" fill="#101010"/>
<path d="M107.513 15.454H107.473V23H115V22.1587V15.454H107.513Z" fill="#101010"/>
</g>
<defs>
<clipPath id="clip0_2625_1825">
<rect width="115" height="23" fill="white"/>
</clipPath>
</defs>
</svg>
