<svg width="46" height="27" viewBox="0 0 46 27" fill="none" xmlns="http://www.w3.org/2000/svg">
<rect width="46" height="27" rx="13.5" fill="#FB6930"/>
<path d="M9.08646 18V8.2H11.0885L15.8765 14.78V8.2H17.7805V18H15.8765L11.0045 11.294V18H9.08646ZM22.8126 18.168C22.1219 18.168 21.5106 18.014 20.9786 17.706C20.4466 17.3887 20.0266 16.9547 19.7186 16.404C19.4199 15.8533 19.2706 15.2187 19.2706 14.5C19.2706 13.7813 19.4246 13.1467 19.7326 12.596C20.0499 12.0453 20.4793 11.616 21.0206 11.308C21.5713 10.9907 22.2013 10.832 22.9106 10.832C23.5266 10.832 24.0913 10.9953 24.6046 11.322C25.1273 11.6393 25.5426 12.1107 25.8506 12.736C26.1679 13.352 26.3266 14.1033 26.3266 14.99H21.0206L21.1886 14.822C21.1886 15.1673 21.2726 15.4707 21.4406 15.732C21.6179 15.984 21.8419 16.18 22.1126 16.32C22.3926 16.4507 22.6913 16.516 23.0086 16.516C23.3913 16.516 23.7039 16.4367 23.9466 16.278C24.1893 16.11 24.3759 15.8953 24.5066 15.634L26.1586 16.278C25.9626 16.67 25.7059 17.0107 25.3886 17.3C25.0806 17.58 24.7119 17.7947 24.2826 17.944C23.8533 18.0933 23.3633 18.168 22.8126 18.168ZM21.2866 13.786L21.1186 13.618H24.4926L24.3386 13.786C24.3386 13.45 24.2593 13.184 24.1006 12.988C23.9419 12.7827 23.7459 12.6333 23.5126 12.54C23.2886 12.4467 23.0693 12.4 22.8546 12.4C22.6399 12.4 22.4113 12.4467 22.1686 12.54C21.9259 12.6333 21.7159 12.7827 21.5386 12.988C21.3706 13.184 21.2866 13.45 21.2866 13.786ZM33.6381 18L35.9621 11H37.8381L35.4581 18H33.6381ZM28.9901 18L31.2301 11H32.8401L30.6281 18H28.9901ZM28.8081 18L26.4281 11H28.3041L30.5301 18H28.8081ZM33.6381 18L31.4541 11H33.0501L35.2761 18H33.6381Z" fill="white"/>
</svg>
