<svg width="117" height="31" viewBox="0 0 117 31" fill="none" xmlns="http://www.w3.org/2000/svg">
<g id="Logo (1) 1" clip-path="url(#clip0_3262_5534)">
<path id="Vector" d="M45.2886 21.0223V27.1249H41.2852V8.25933H45.2088V9.517C46.3278 8.45603 47.812 7.86617 49.354 7.86958C53.2777 7.86958 56.2271 10.9342 56.2271 15.1678C56.2271 19.4015 53.3043 22.6078 49.4071 22.6078C47.8831 22.6195 46.4114 22.0529 45.2886 21.0223ZM48.8314 18.8613C49.2982 18.8554 49.7593 18.7576 50.188 18.573C50.6168 18.3885 51.0049 18.1211 51.33 17.7861C51.6551 17.4511 51.9108 17.0551 52.0825 16.621C52.2541 16.1869 52.3381 15.7231 52.3299 15.2564C52.3467 14.7855 52.2679 14.3162 52.0984 13.8766C51.9289 13.437 51.6721 13.0364 51.3435 12.6987C51.015 12.3609 50.6214 12.0933 50.1867 11.9118C49.7519 11.7304 49.2848 11.6388 48.8137 11.6427C48.3386 11.6287 47.8657 11.7131 47.4248 11.8907C46.9839 12.0683 46.5845 12.3352 46.2518 12.6746C45.9191 13.014 45.6601 13.4186 45.4913 13.8629C45.3225 14.3072 45.2474 14.7817 45.2708 15.2564C45.2552 15.7288 45.3357 16.1994 45.5074 16.6398C45.6791 17.0801 45.9384 17.481 46.2697 17.8181C46.6011 18.1552 46.9974 18.4214 47.4346 18.6008C47.872 18.7801 48.3411 18.8687 48.8137 18.8613H48.8314Z" fill="black"/>
<path id="Vector_2" d="M59.9411 8.25934L63.0677 16.3636L66.1588 8.25934H70.4988L62.5274 27.1249H58.4265L61.0217 21.049L55.7075 8.25934H59.9411Z" fill="black"/>
<path id="Vector_3" d="M75.1987 22.2092H71.1954V2.32501H75.1987V22.2092Z" fill="black"/>
<path id="Vector_4" d="M76.548 15.222C76.541 13.7522 76.9706 12.3133 77.7822 11.0879C78.5937 9.86248 79.7515 8.90567 81.107 8.33875C82.4632 7.77176 83.9574 7.62024 85.3997 7.90336C86.842 8.18639 88.168 8.89141 89.2088 9.9289C90.2504 10.9664 90.9603 12.2896 91.2486 13.731C91.5362 15.1722 91.3905 16.6667 90.8286 18.0249C90.2659 19.383 89.3135 20.5437 88.0913 21.3598C86.8683 22.1758 85.4315 22.6105 83.9613 22.6088C82.9864 22.6218 82.0192 22.4399 81.1155 22.0736C80.2119 21.7073 79.3904 21.1642 78.6998 20.476C78.0091 19.7878 77.4629 18.9685 77.0934 18.0662C76.7239 17.164 76.5385 16.1969 76.548 15.222ZM83.9613 18.9154C84.4395 18.9159 84.913 18.8195 85.3532 18.6321C85.7926 18.4447 86.1902 18.1702 86.5211 17.8251C86.8521 17.48 87.1101 17.0715 87.2791 16.6241C87.448 16.1767 87.5248 15.6998 87.5038 15.222C87.5759 14.7196 87.5387 14.2077 87.3953 13.7209C87.252 13.2341 87.0055 12.7838 86.673 12.4005C86.3406 12.0172 85.929 11.7098 85.4679 11.4991C85.006 11.2884 84.5046 11.1794 83.997 11.1794C83.4893 11.1794 82.9879 11.2884 82.526 11.4991C82.0641 11.7098 81.6534 12.0172 81.3209 12.4005C80.9884 12.7838 80.742 13.2341 80.5986 13.7209C80.4552 14.2077 80.418 14.7196 80.4893 15.222C80.4692 15.6939 80.5436 16.165 80.7079 16.6077C80.8729 17.0504 81.124 17.4557 81.448 17.7998C81.7712 18.144 82.1602 18.4199 82.5919 18.6115C83.0236 18.8031 83.4893 18.9064 83.9613 18.9154Z" fill="black"/>
<path id="Vector_5" d="M91.5145 8.25871H94.0394V4.62729H98.0159V8.25871H101.558V11.7041H98.0159V16.9298C97.9803 17.1727 98.0004 17.4205 98.0764 17.6541C98.1516 17.8877 98.2802 18.1007 98.4523 18.2764C98.6235 18.4521 98.8328 18.5859 99.0645 18.6673C99.2962 18.7486 99.5435 18.7754 99.7876 18.7455H101.558V22.2086H99.2559C95.8459 22.2086 94.0565 20.6232 94.0565 17.2132V11.7041H91.5145V8.25871Z" fill="black"/>
<path id="Vector_6" d="M101.968 15.3631C101.956 13.3951 102.724 11.5025 104.103 10.0985C105.482 8.6945 107.361 7.89331 109.329 7.86998C110.237 7.84836 111.141 8.01057 111.985 8.34676C112.829 8.68296 113.597 9.18624 114.243 9.82647C114.888 10.4666 115.397 11.2306 115.739 12.0724C116.083 12.9142 116.252 13.8166 116.237 14.7254C116.237 15.2589 116.199 15.7917 116.121 16.3197H105.865C105.994 17.1644 106.422 17.9344 107.073 18.4879C107.724 19.0412 108.554 19.3407 109.408 19.3311C109.956 19.3632 110.5 19.2322 110.973 18.9547C111.446 18.6772 111.826 18.2657 112.065 17.7722H116.015C115.36 20.4293 112.827 22.6525 109.107 22.6525C108.154 22.66 107.211 22.4755 106.331 22.1099C105.451 21.7443 104.655 21.2052 103.989 20.5248C103.322 19.8444 102.8 19.0366 102.453 18.1497C102.106 17.2628 101.941 16.3151 101.968 15.3631ZM112.136 13.4322C112.042 12.7578 111.696 12.1436 111.17 11.712C110.643 11.2803 109.973 11.0628 109.293 11.1028C108.576 11.0949 107.875 11.3168 107.293 11.736C106.711 12.1551 106.28 12.7496 106.06 13.4322H112.136Z" fill="black"/>
<path id="Vector_7" d="M26.8185 0H6.15184C3.29836 0 0.985168 2.3132 0.985168 5.16667V25.8333C0.985168 28.6868 3.29836 31 6.15184 31H26.8185C29.6719 31 31.9852 28.6868 31.9852 25.8333V5.16667C31.9852 2.3132 29.6719 0 26.8185 0Z" fill="#6F6F6F"/>
<path id="Vector_8" d="M14.548 13.5628H11.4674C10.8654 13.5577 10.2784 13.3749 9.78003 13.0372C9.28162 12.6996 8.89412 12.2223 8.66609 11.6651C8.43808 11.108 8.37977 10.496 8.49846 9.90581C8.61715 9.31564 8.90753 8.77368 9.33324 8.34805C9.75887 7.92235 10.3008 7.63197 10.891 7.51328C11.4812 7.39459 12.0932 7.4529 12.6503 7.6809C13.2075 7.90894 13.6848 8.29644 14.0224 8.79484C14.36 9.29317 14.5429 9.88023 14.548 10.4822V13.5628ZM11.4932 8.54467C10.9724 8.54467 10.4731 8.75152 10.1049 9.11972C9.7367 9.48792 9.52986 9.98726 9.52986 10.508C9.52986 11.0287 9.7367 11.5281 10.1049 11.8963C10.4731 12.2644 10.9724 12.4713 11.4932 12.4713H13.4307V10.5338C13.4412 10.2708 13.398 10.0083 13.3038 9.76243C13.2096 9.5166 13.0662 9.29262 12.8824 9.10399C12.6987 8.91543 12.4784 8.76632 12.2351 8.66565C11.9919 8.56506 11.7306 8.51507 11.4674 8.51879L11.4932 8.54467Z" fill="#E6E6E6"/>
<path id="Vector_9" d="M21.5033 13.5628H18.4227V10.4822C18.4278 9.88023 18.6106 9.29317 18.9483 8.79484C19.2859 8.29644 19.7632 7.90894 20.3203 7.6809C20.8775 7.4529 21.4895 7.39459 22.0797 7.51328C22.6698 7.63197 23.2118 7.92235 23.6374 8.34805C24.063 8.77368 24.3535 9.31564 24.4722 9.90581C24.5909 10.496 24.5325 11.108 24.3045 11.6651C24.0765 12.2223 23.689 12.6996 23.1906 13.0372C22.6923 13.3749 22.1052 13.5577 21.5033 13.5628ZM19.5658 12.4713H21.5033C21.7614 12.4728 22.0171 12.4228 22.2556 12.324C22.494 12.2253 22.7104 12.08 22.8919 11.8965C23.0753 11.715 23.2206 11.4987 23.3194 11.2603C23.418 11.0218 23.4682 10.7661 23.4666 10.508C23.4666 9.98726 23.2598 9.48792 22.8916 9.11972C22.5233 8.75152 22.024 8.54467 21.5033 8.54467C20.9826 8.54467 20.4832 8.75152 20.115 9.11972C19.7468 9.48792 19.54 9.98726 19.54 10.508L19.5658 12.4713Z" fill="#E6E6E6"/>
<path id="Vector_10" d="M18.9906 12.4454H13.9725V13.5368H18.9906V12.4454Z" fill="#E6E6E6"/>
<path id="Vector_11" d="M19.5384 12.9881H18.4469V18.0062H19.5384V12.9881Z" fill="#E6E6E6"/>
<path id="Vector_12" d="M18.9906 17.4632H13.9725V18.5547H18.9906V17.4632Z" fill="#E6E6E6"/>
<path id="Vector_13" d="M14.519 12.9881H13.4276V18.0062H14.519V12.9881Z" fill="#E6E6E6"/>
<path id="Vector_14" d="M11.4691 23.5728C10.6589 23.5728 9.88186 23.251 9.30898 22.6781C8.7361 22.1052 8.41428 21.3282 8.41428 20.518C8.41428 19.7079 8.7361 18.9308 9.30898 18.358C9.88186 17.7851 10.6589 17.4632 11.4691 17.4632H14.5497V20.518C14.5497 20.9214 14.4699 21.3207 14.3147 21.693C14.1596 22.0653 13.9322 22.4032 13.6459 22.6873C13.3594 22.9713 13.0196 23.1957 12.6461 23.3477C12.2724 23.4997 11.8724 23.5762 11.4691 23.5728ZM11.4691 18.5547C11.0859 18.5547 10.7113 18.6684 10.3927 18.8812C10.0741 19.0941 9.82568 19.3967 9.67904 19.7507C9.53242 20.1047 9.49405 20.4943 9.56876 20.8702C9.64355 21.246 9.82808 21.5913 10.099 21.8622C10.37 22.1331 10.7152 22.3177 11.0911 22.3925C11.4669 22.4672 11.8565 22.4289 12.2105 22.2822C12.5645 22.1355 12.8672 21.8872 13.0801 21.5686C13.2929 21.25 13.4066 20.8754 13.4066 20.4922V18.5547H11.4691Z" fill="#E6E6E6"/>
<path id="Vector_15" d="M21.5033 23.5729C21.1 23.5764 20.6999 23.4999 20.3263 23.3478C19.9528 23.1958 19.6129 22.9714 19.3265 22.6874C19.0401 22.4034 18.8128 22.0655 18.6576 21.6931C18.5025 21.3208 18.4227 20.9214 18.4227 20.5181V17.4375H21.4775C22.2877 17.4375 23.0646 17.7594 23.6375 18.3322C24.2104 18.9051 24.5322 19.6821 24.5322 20.4923C24.5322 21.3025 24.2104 22.0794 23.6375 22.6523C23.0646 23.2253 22.2877 23.5471 21.4775 23.5471L21.5033 23.5729ZM19.5658 18.5548V20.4923C19.5643 20.7504 19.6144 21.0061 19.713 21.2445C19.8118 21.483 19.9572 21.6993 20.1406 21.8808C20.4098 22.169 20.7607 22.3681 21.1461 22.4514C21.5315 22.5349 21.9333 22.4988 22.2976 22.3478C22.6619 22.1969 22.9715 21.9384 23.185 21.6068C23.3986 21.2752 23.5058 20.8864 23.4925 20.4923C23.4925 19.9784 23.2884 19.4856 22.925 19.1223C22.5616 18.759 22.0688 18.5548 21.555 18.5548H19.5658Z" fill="#E6E6E6"/>
</g>
<defs>
<clipPath id="clip0_3262_5534">
<rect width="115.475" height="31" fill="white" transform="translate(0.985168)"/>
</clipPath>
</defs>
</svg>
