<?xml version="1.0" encoding="UTF-8"?>
<svg id="Calque_1" data-name="Calque 1" xmlns="http://www.w3.org/2000/svg" viewBox="0 0 448.18 141.55">
  <defs>
    <style>
      .cls-1 {
        fill: #48b792;
      }

      .cls-1, .cls-2, .cls-3, .cls-4, .cls-5, .cls-6, .cls-7, .cls-8, .cls-9, .cls-10, .cls-11, .cls-12, .cls-13, .cls-14, .cls-15, .cls-16, .cls-17, .cls-18, .cls-19, .cls-20, .cls-21, .cls-22, .cls-23, .cls-24, .cls-25, .cls-26, .cls-27, .cls-28, .cls-29, .cls-30, .cls-31, .cls-32, .cls-33, .cls-34, .cls-35, .cls-36, .cls-37, .cls-38, .cls-39, .cls-40, .cls-41, .cls-42, .cls-43, .cls-44, .cls-45, .cls-46, .cls-47, .cls-48, .cls-49, .cls-50, .cls-51, .cls-52, .cls-53, .cls-54, .cls-55, .cls-56, .cls-57, .cls-58, .cls-59, .cls-60, .cls-61, .cls-62, .cls-63, .cls-64, .cls-65, .cls-66, .cls-67, .cls-68, .cls-69, .cls-70, .cls-71, .cls-72, .cls-73, .cls-74, .cls-75, .cls-76, .cls-77, .cls-78, .cls-79, .cls-80, .cls-81, .cls-82, .cls-83, .cls-84, .cls-85, .cls-86, .cls-87, .cls-88, .cls-89, .cls-90, .cls-91, .cls-92, .cls-93, .cls-94, .cls-95, .cls-96, .cls-97, .cls-98, .cls-99, .cls-100, .cls-101, .cls-102 {
        stroke-width: 0px;
      }

      .cls-2 {
        fill: #5cba98;
      }

      .cls-3 {
        fill: #4bb793;
      }

      .cls-4 {
        fill: #5ebb99;
      }

      .cls-5 {
        fill: #5ebb98;
      }

      .cls-6 {
        fill: #75c2a2;
      }

      .cls-7 {
        fill: #60bb99;
      }

      .cls-8 {
        fill: #74b19d;
      }

      .cls-9 {
        fill: #73c1a2;
      }

      .cls-10 {
        fill: #74c2a2;
      }

      .cls-11 {
        fill: #75b39f;
      }

      .cls-12 {
        fill: #77c3a3;
      }

      .cls-13 {
        fill: #71b89b;
      }

      .cls-14 {
        fill: #4cb793;
      }

      .cls-15 {
        fill: #78c3a4;
      }

      .cls-16 {
        fill: #7ac4a6;
      }

      .cls-17 {
        fill: #7ac4a5;
      }

      .cls-18 {
        fill: #49b792;
      }

      .cls-19 {
        fill: #63bc9a;
      }

      .cls-20 {
        fill: #5bba98;
      }

      .cls-21 {
        fill: #62bc9a;
      }

      .cls-22 {
        fill: #6ec09f;
      }

      .cls-23 {
        fill: #87b6a4;
      }

      .cls-24 {
        fill: #6bbf9e;
      }

      .cls-25 {
        fill: #44b691;
      }

      .cls-26 {
        fill: #52b895;
      }

      .cls-27 {
        fill: #52b995;
      }

      .cls-28 {
        fill: #878d9a;
      }

      .cls-29 {
        fill: #868794;
      }

      .cls-30 {
        fill: #87b5a4;
      }

      .cls-31 {
        fill: #51b895;
      }

      .cls-32 {
        fill: #70c0a0;
      }

      .cls-33 {
        fill: #70c0a1;
      }

      .cls-34 {
        fill: #6cbf9e;
      }

      .cls-35 {
        fill: #89919d;
      }

      .cls-36 {
        fill: #3bb48e;
      }

      .cls-37 {
        fill: #59ba97;
      }

      .cls-38 {
        fill: #59ba98;
      }

      .cls-39 {
        fill: #37b38e;
      }

      .cls-40 {
        fill: #56b996;
      }

      .cls-41 {
        fill: #57ba97;
      }

      .cls-42 {
        fill: #56ba96;
      }

      .cls-43 {
        fill: #3ab48e;
      }

      .cls-44 {
        fill: #19273f;
      }

      .cls-45 {
        fill: #3db48e;
      }

      .cls-46 {
        fill: #35b38d;
      }

      .cls-47 {
        fill: #42b590;
      }

      .cls-48 {
        fill: #3eb48f;
      }

      .cls-49 {
        fill: #41b590;
      }

      .cls-50 {
        fill: #14223a;
      }

      .cls-51 {
        fill: #14233b;
      }

      .cls-52 {
        fill: #40b58f;
      }

      .cls-53 {
        fill: #a7cdc1;
      }

      .cls-54 {
        fill: #c3d9d1;
      }

      .cls-55 {
        fill: #c3c7cd;
      }

      .cls-56 {
        fill: #dce7e3;
      }

      .cls-57 {
        fill: #c8dad2;
      }

      .cls-58 {
        fill: #c8dbd3;
      }

      .cls-59 {
        fill: #dde8e4;
      }

      .cls-60 {
        fill: #c9dbd3;
      }

      .cls-61 {
        fill: #c6c9cf;
      }

      .cls-62 {
        fill: #c6dad1;
      }

      .cls-63 {
        fill: #cbdcd5;
      }

      .cls-64 {
        fill: #ccddd6;
      }

      .cls-65 {
        fill: #aecfc3;
      }

      .cls-66 {
        fill: #aed0c4;
      }

      .cls-67 {
        fill: #c5d9d1;
      }

      .cls-68 {
        fill: #c5dad2;
      }

      .cls-69 {
        fill: #c7dcd3;
      }

      .cls-70 {
        fill: #c7dbd3;
      }

      .cls-71 {
        fill: #d4e4de;
      }

      .cls-72 {
        fill: #d5e4df;
      }

      .cls-73 {
        fill: #dbe8e4;
      }

      .cls-74 {
        fill: #bed9d0;
      }

      .cls-75 {
        fill: #bed7ce;
      }

      .cls-76 {
        fill: #a4cbbe;
      }

      .cls-77 {
        fill: #a8cdc0;
      }

      .cls-78 {
        fill: #b0d0c4;
      }

      .cls-79 {
        fill: #b0d2c6;
      }

      .cls-80 {
        fill: #bfd7cd;
      }

      .cls-81 {
        fill: #b7d2c7;
      }

      .cls-82 {
        fill: #c2d8d0;
      }

      .cls-83 {
        fill: #c2d8cf;
      }

      .cls-84 {
        fill: #b8d6cc;
      }

      .cls-85 {
        fill: #8cb7a6;
      }

      .cls-86 {
        fill: #c1d9d0;
      }

      .cls-87 {
        fill: #71c1a1;
      }

      .cls-88 {
        fill: #c1d7ce;
      }

      .cls-89 {
        fill: #b9bbc3;
      }

      .cls-90 {
        fill: #7cb2a0;
      }

      .cls-91 {
        fill: #7cb3a0;
      }

      .cls-92 {
        fill: #85b6a4;
      }

      .cls-93 {
        fill: #848a97;
      }

      .cls-94 {
        fill: #7dc5a7;
      }

      .cls-95 {
        fill: #80b4a1;
      }

      .cls-96 {
        fill: #64bc9a;
      }

      .cls-97 {
        fill: #72b19e;
      }

      .cls-98 {
        fill: #67bd9c;
      }

      .cls-99 {
        fill: #fff;
      }

      .cls-100 {
        fill: #e3ebe8;
      }

      .cls-101 {
        fill: #66bd9b;
      }

      .cls-102 {
        fill: #69be9d;
      }
    </style>
  </defs>
  <path class="cls-51" d="m168.22.17c1.57.21,3.05.72,4.55,1.21.26.08.37.24.36.51,0,.26,0,.52,0,.79,0,11.96,0,23.91,0,35.87,0,.35,0,.7,0,1.05.31.05.39-.16.5-.29,3.9-4.39,8.73-7.27,14.39-8.75,2.81-.74,5.68-.94,8.58-.9,6.3.09,12.17,1.66,17.54,4.98,5.99,3.7,10.27,8.87,13.07,15.29,1.32,3.02,2.17,6.16,2.62,9.43.48,3.49.54,6.99.13,10.48-.79,6.68-3.16,12.74-7.41,18.01-3.35,4.16-7.55,7.23-12.39,9.45-3.42,1.56-7,2.55-10.73,3.02-3.3.42-6.6.45-9.91.14-4.5-.42-8.85-1.47-12.94-3.42-6.61-3.15-11.45-8.09-14.63-14.66-1.69-3.5-2.8-7.18-3.41-11.02-.51-3.18-.73-6.37-.73-9.59,0-18.05,0-36.1,0-54.15,0-1.02.07-2.03.35-3.01.44-1.53,1.36-2.67,2.74-3.43.99-.55,2.05-.84,3.16-1,.12-.07.25-.06.38-.06.21-.03.43.07.62-.1h1.97c.19.18.43.07.65.1.18.01.37-.04.54.07Z"/>
  <path class="cls-51" d="m448.18,98.69c-.28.12-.58.07-.88.07-4.46,0-8.92,0-13.38,0-1.05,0-.95.09-.96-.94,0-11.89,0-23.78,0-35.68,0-2.49-.23-4.97-.91-7.39-.49-1.75-1.19-3.4-2.22-4.9-1.97-2.89-4.7-4.7-8.04-5.61-2.84-.78-5.74-.93-8.67-.68-1.61.14-3.19.41-4.71.91-4.29,1.42-7.19,4.29-8.81,8.49-.63,1.63-1,3.32-1.22,5.04-.19,1.47-.23,2.94-.23,4.41,0,11.7,0,23.39,0,35.09,0,.29,0,.59,0,.88,0,.24-.14.35-.37.36-.2,0-.39,0-.59,0-4.46,0-8.92,0-13.38,0-1.05,0-.96.08-.96-.94,0-12.35,0-24.7,0-37.05,0-1.18-.02-2.36,0-3.54.12-6.12,1.97-11.64,5.81-16.45,2.84-3.55,6.42-6.13,10.57-7.96,3.23-1.42,6.6-2.3,10.09-2.78,3.03-.41,6.08-.49,9.13-.32,5.05.29,9.92,1.35,14.5,3.55,4.59,2.2,8.37,5.35,11.13,9.67,2.04,3.2,3.28,6.68,3.84,10.42.06.42.06.85.09,1.27.12.3.04.62.06.93.05.35-.11.72.1,1.05v42.07Z"/>
  <path class="cls-24" d="m146.56,141.37c-1.11-.18-2.16-.53-3.13-1.1-2.58-1.54-3.99-3.79-4.17-6.8-.11-1.75.22-3.4,1.17-4.88,1.48-2.32,3.61-3.61,6.35-3.98,2.06-.28,3.99.06,5.78,1.07,2.65,1.5,4.06,3.81,4.25,6.86.11,1.86-.35,3.56-1.37,5.12-.94,1.45-2.25,2.45-3.83,3.11-.66.28-1.35.49-2.07.61-.24.19-.57-.04-.8.18h-1.38c-.23-.22-.56.01-.8-.18Z"/>
  <path class="cls-16" d="m28.91,141.37c-1.41-.24-2.73-.71-3.88-1.58-1.77-1.33-2.74-3.12-3.01-5.31-.02-.19-.03-.39-.04-.59-.25-2.69.5-5.06,2.42-6.98,1.31-1.32,2.94-2.01,4.78-2.3,1.39-.22,2.75-.13,4.08.24,1.46.4,2.74,1.11,3.54,2.46.91,1.52.99,3.1.22,4.69-.37.76-1.01,1.28-1.76,1.66-.7.36-1.45.62-2.22.77-1.32.25-2.65.44-4,.43-.89,0-1.77-.01-2.66,0-.36,0-.47.16-.36.5.44,1.35,1.39,2.19,2.71,2.64.49.17,1.01.27,1.54.27,1.08,0,2.16.08,3.22-.23.57-.17,1.11-.39,1.65-.63.34-.16.43-.13.62.22.32.61.64,1.22.94,1.83.14.29.1.4-.16.57-.52.35-1.1.57-1.69.77-.84.29-1.71.43-2.58.6-.31.19-.7-.06-1,.17h-1.57c-.23-.22-.56,0-.8-.18Z"/>
  <path class="cls-9" d="m85.57,141.37c-1.37-.24-2.65-.7-3.79-1.52-1.27-.91-2.17-2.12-2.64-3.58-.79-2.45-.77-4.91.42-7.25,1.26-2.49,3.36-3.85,6.06-4.36,1.45-.28,2.87-.19,4.28.19,1.09.3,2.09.77,2.89,1.59,1.4,1.46,1.76,3.16,1.14,5.07-.29.88-.91,1.5-1.69,1.98-.59.36-1.23.61-1.9.78-1.47.37-2.96.56-4.47.58-.95.01-1.9,0-2.85,0-.3,0-.42.16-.33.44.43,1.34,1.36,2.21,2.67,2.68.25.09.5.17.76.2,1.81.22,3.6.22,5.29-.59.83-.39.76-.5,1.23.41.24.47.49.93.72,1.4.18.36.13.5-.23.72-.65.39-1.37.64-2.09.83-.63.17-1.28.29-1.92.43-.3.22-.69-.05-.99.19h-1.57c-.3-.24-.69.03-.99-.19Z"/>
  <path class="cls-6" d="m65.89,141.38c-1.01-.19-1.99-.51-2.89-1-.17-.09-.31-.22-.46-.34-.17-1.41-.07-2.82.02-4.23.01-.16.12-.3.27-.38.11,0,.21.02.31.08.17.12.31.27.47.4,1.06,1.06,2.17,1.85,3.82,1.89,2.57.07,4.65-1.9,4.7-4.82.04-2.53-1.71-4.55-4.22-4.85-1.76-.21-3.17.56-4.27,1.91-.15.14-.29.29-.45.42-.09.06-.2.1-.31.11-.21-.08-.31-.26-.32-.45-.06-1.44-.2-2.88,0-4.33.69-.59,1.54-.85,2.4-1.06,1.6-.38,3.18-.33,4.73.27.8.31,1.52.75,2.16,1.34.07.07.15.13.23.18.1.07.27-.02.28-.16.01-.26.02-.52.02-.78,0-1.93,0-3.86,0-5.8,0-.33,0-.66.03-.98.06-.63.45-1.04,1.02-1.18.74-.18,1.49-.16,2.23.11.21.07.33.21.34.43,0,.2,0,.39,0,.59,0,4.52,0,9.04,0,13.56,0,1.35-.13,2.68-.61,3.95-.97,2.58-2.77,4.23-5.45,4.91-.29.07-.57.14-.86.2-.3.22-.69-.05-.99.19h-1.38c-.23-.22-.56,0-.8-.17Z"/>
  <path class="cls-44" d="m.39,98.71c-.13.06-.26.06-.39-.01V14.94c.15-.2.21-.76.58-.16.18.47.13.97.13,1.46,0,26.92,0,53.84,0,80.76,0,.58.1,1.19-.32,1.7Z"/>
  <path class="cls-85" d="m167.82,141.55h-1.97c-.06-.12-.04-.21.07-.29.61-.25,1.22-.25,1.84,0,.11.08.13.18.07.3Z"/>
  <path class="cls-11" d="m421.42,141.55h-1.77c-.06-.11-.04-.21.06-.29.55-.24,1.1-.24,1.65,0,.1.08.12.18.06.29Z"/>
  <path class="cls-90" d="m304.76,141.55h-1.77c-.06-.11-.04-.21.06-.29.55-.24,1.1-.24,1.65,0,.1.08.12.18.06.29Z"/>
  <path class="cls-30" d="m223.7,141.55h-1.77c-.06-.11-.04-.21.06-.29.55-.24,1.1-.24,1.65,0,.1.08.12.18.06.29Z"/>
  <path class="cls-91" d="m331.12,141.55h-1.57c-.06-.11-.04-.21.06-.29.49-.23.97-.23,1.46,0,.1.08.12.18.06.29Z"/>
  <path class="cls-95" d="m288.03,141.55h-1.57c-.06-.11-.04-.21.06-.29.49-.23.97-.23,1.46,0,.1.08.12.18.06.29Z"/>
  <path class="cls-92" d="m260.68,141.55h-1.57c-.06-.11-.04-.21.06-.29.49-.23.97-.23,1.46,0,.1.08.12.18.06.29Z"/>
  <path class="cls-23" d="m241.01,141.55h-1.57c-.06-.11-.04-.21.06-.29.49-.23.97-.23,1.46,0,.1.08.12.18.06.29Z"/>
  <path class="cls-29" d="m.38,14.52c-.13.14-.25.28-.38.42,0-.26,0-.52,0-.79.12-.14.24-.28.36-.42.26.25.26.52.02.78Z"/>
  <path class="cls-97" d="m438.93,141.55h-1.38c-.06-.11-.05-.2.05-.29.42-.21.85-.21,1.27,0,.1.08.12.18.05.29Z"/>
  <path class="cls-8" d="m401.36,141.55h-1.38c-.06-.11-.05-.2.05-.29.42-.21.85-.21,1.27,0,.1.08.12.18.05.29Z"/>
  <path class="cls-58" d="m165.83,141.37c0,.06.02.12.02.18h-1.18c0-.06,0-.13,0-.19.39-.33.78-.33,1.17,0Z"/>
  <path class="cls-57" d="m31.28,141.55c.29-.3.66-.18,1-.17,0,.06-.02.11-.02.17h-.98Z"/>
  <path class="cls-68" d="m223.7,141.55c0-.06.01-.12.02-.18.32-.3.64-.29.97,0,0,.06,0,.12,0,.19h-.98Z"/>
  <path class="cls-83" d="m167.82,141.55c0-.06.02-.12.02-.18.32-.3.65-.3.97,0,0,.06-.01.12-.01.18h-.98Z"/>
  <path class="cls-74" d="m421.42,141.55c0-.06.01-.11.02-.17.32-.31.64-.3.96-.02,0,.06,0,.13,0,.19h-.98Z"/>
  <path class="cls-86" d="m331.12,141.55c0-.06.01-.12.02-.18.32-.3.64-.3.97-.01,0,.06,0,.13,0,.19h-.98Z"/>
  <path class="cls-93" d="m448.18,56.62c-.3-.29-.18-.65-.17-.99.06-.08.12-.08.17.01v.98Z"/>
  <path class="cls-89" d="m448.18,55.64c-.06,0-.12,0-.17-.01,0-.33,0-.66.01-.99.06-.01.11,0,.16.01v.98Z"/>
  <path class="cls-63" d="m88.14,141.55c.29-.3.65-.18.99-.19,0,.06,0,.13,0,.19h-.98Z"/>
  <path class="cls-75" d="m288.03,141.55c0-.06.02-.12.03-.17.32-.3.64-.3.97,0,0,.06-.01.12,0,.18h-.98Z"/>
  <path class="cls-88" d="m85.57,141.37c.34,0,.71-.11.99.19h-.98c0-.06,0-.12,0-.19Z"/>
  <path class="cls-67" d="m68.07,141.55c.28-.3.65-.18.99-.19,0,.06-.01.13,0,.19h-.98Z"/>
  <path class="cls-80" d="m221.91,141.37c0,.06.01.12.01.19h-.79c0-.06,0-.13,0-.19.26-.23.52-.23.78,0Z"/>
  <path class="cls-70" d="m239.41,141.38c0,.06.02.12.03.17h-.79c0-.06-.01-.11-.02-.17.26-.25.52-.25.78,0Z"/>
  <path class="cls-74" d="m419.63,141.38c.01.06.02.12.02.17h-.79c0-.06,0-.12,0-.18.26-.23.52-.24.77.01Z"/>
  <path class="cls-69" d="m241.01,141.55c0-.06.02-.12.03-.18.26-.25.52-.25.78,0,0,.06,0,.11-.02.17h-.79Z"/>
  <path class="cls-84" d="m399.95,141.38c0,.06.02.11.02.17h-.79c0-.06,0-.12-.01-.18.26-.24.52-.24.77,0Z"/>
  <path class="cls-62" d="m148.74,141.55c.21-.29.52-.19.8-.18,0,.06-.01.12-.01.18h-.79Z"/>
  <path class="cls-66" d="m304.76,141.55c0-.06.02-.12.02-.17.21-.25.46-.23.72-.1.09.08.11.17.04.28h-.79Z"/>
  <path class="cls-81" d="m146.56,141.37c.28,0,.59-.11.8.18h-.79c0-.06,0-.12-.01-.18Z"/>
  <path class="cls-65" d="m302.97,141.38c0,.06.01.12.02.18h-.79c-.07-.1-.05-.2.04-.28.26-.13.51-.14.73.1Z"/>
  <path class="cls-82" d="m260.68,141.55c0-.06.01-.12.02-.18.26-.24.51-.24.77,0,0,.06,0,.12-.01.18h-.79Z"/>
  <path class="cls-60" d="m28.91,141.37c.28,0,.59-.11.8.18h-.79c0-.06,0-.12-.01-.18Z"/>
  <path class="cls-54" d="m259.09,141.37c0,.06.02.12.02.18h-.79c0-.06,0-.12-.01-.18.26-.24.52-.24.78,0Z"/>
  <path class="cls-64" d="m65.89,141.38c.28,0,.58-.11.8.17h-.79c0-.06,0-.12-.02-.17Z"/>
  <path class="cls-78" d="m286.44,141.37c0,.06.01.12.02.18h-.59c-.07-.1-.06-.18.03-.26.2-.1.39-.1.55.08Z"/>
  <path class="cls-61" d="m168.22.17c-.19,0-.39,0-.58,0-.08-.03-.1-.06-.08-.1.02-.04.04-.06.07-.06h.59c0,.06,0,.11,0,.17Z"/>
  <path class="cls-35" d="m165.07,0c-.15.24-.38.19-.6.17-.05-.04-.07-.08-.05-.12.02-.03.04-.05.06-.05h.59Z"/>
  <path class="cls-77" d="m329.53,141.38c0,.06.01.12.02.17h-.59c-.07-.1-.06-.18.03-.26.2-.1.39-.1.54.09Z"/>
  <path class="cls-76" d="m401.36,141.55c0-.06.01-.11.02-.17.15-.19.34-.19.54-.09.09.08.1.17.03.26h-.59Z"/>
  <path class="cls-79" d="m437.54,141.38c0,.06.02.12.02.18h-.59c-.01-.05-.02-.11-.02-.16.19-.2.39-.19.59-.01Z"/>
  <path class="cls-28" d="m167.63,0c0,.05.02.11.02.16-.23.03-.46.09-.61-.16h.59Z"/>
  <path class="cls-53" d="m438.93,141.55c0-.06.01-.12.02-.17.15-.19.34-.19.54-.09.09.08.1.17.03.26h-.59Z"/>
  <path class="cls-100" d="m302.18,141.38c0,.06.01.11.01.17h-.59c0-.06,0-.12,0-.18.2-.18.39-.18.58,0Z"/>
  <path class="cls-56" d="m285.86,141.38c0,.06.01.12.01.18h-.39c0-.06,0-.12,0-.18.13-.11.26-.12.39,0Z"/>
  <path class="cls-59" d="m305.54,141.55c0-.06,0-.12,0-.18.13-.11.26-.11.39,0,0,.06,0,.12,0,.18h-.39Z"/>
  <path class="cls-72" d="m328.94,141.38c0,.06.01.12.01.18h-.39c0-.06,0-.12,0-.18.13-.12.26-.12.39,0Z"/>
  <path class="cls-71" d="m401.95,141.55c0-.06,0-.12.01-.18.13-.12.26-.12.39,0,0,.06,0,.12,0,.18h-.39Z"/>
  <path class="cls-55" d="m164.48,0c0,.06,0,.11-.01.17-.13,0-.26,0-.39,0,0-.05,0-.11.01-.16h.39Z"/>
  <path class="cls-73" d="m439.52,141.55c0-.06,0-.12.01-.18.13-.12.25-.12.39,0,0,.06,0,.12,0,.18h-.39Z"/>
  <path class="cls-51" d="m.38,14.52c0-.26-.01-.52-.02-.78.04-.63.21-1.22.41-1.82.37-1.12,1.01-2.04,1.94-2.78,1.74-1.38,3.74-2.15,5.92-2.44,4.52-.6,9.06-.94,13.62-1.05,3.28-.08,6.55-.14,9.83-.11,4.56.03,9.1.36,13.6,1.18,4.24.77,8.35,1.96,12.2,3.92,4.1,2.08,7.58,4.91,10.29,8.64,2.37,3.27,3.79,6.92,4.45,10.89.42,2.54.49,5.09.34,7.64-.2,3.39-.9,6.68-2.33,9.78-1.37,2.96-3.34,5.47-5.71,7.68-2.34,2.18-5,3.91-7.89,5.29-.38.18-.76.36-1.08.52-.13.22-.01.32.06.42,4.16,5.82,7.77,11.97,11.27,18.19,3.39,6.02,6.57,12.15,9.75,18.28.11.22.33.42.24.72-.21.15-.44.09-.66.09-5.64,0-11.28,0-16.92.02-.57,0-.85-.18-1.11-.7-4.31-8.64-8.87-17.15-13.76-25.48-1.34-2.29-2.72-4.55-4.24-6.73-.15-.22-.31-.42-.45-.64-.16-.25-.36-.34-.66-.3-.62.08-1.24.13-1.86.19-3.04.29-6.09.38-9.13.31-2.82-.06-5.63-.17-8.44-.47-1.3-.14-2.61-.28-3.91-.41-.19-.02-.32.05-.33.25-.02.29-.02.59-.02.88,0,10.61,0,21.23,0,31.84,0,1.46.21,1.25-1.23,1.25-4.39,0-8.79,0-13.18,0-.33,0-.65-.04-.98-.05,0-27.83,0-55.67,0-83.5,0-.23,0-.46-.01-.69Z"/>
  <path class="cls-51" d="m99.17,72.55c.68,4.15,2.54,7.5,5.62,10.19,2.24,1.96,4.85,3.2,7.71,3.95,2.68.71,5.41.97,8.17,1.05,5.46.15,10.69-.84,15.7-3.01,1.08-.47,2.13-1,3.19-1.51.22-.1.37-.06.49.15.06.11.13.23.19.35,1.66,3.16,3.32,6.32,4.97,9.48.06.12.12.23.18.35.08.17.03.32-.12.42-.17.11-.34.2-.51.3-2.87,1.74-5.93,3.05-9.16,3.97-3.12.89-6.29,1.59-9.51,1.98-3.65.44-7.31.58-10.99.29-4.01-.32-7.92-1.09-11.65-2.61-10.43-4.24-16.92-11.91-19.65-22.79-.9-3.58-1.1-7.24-.99-10.92.12-4.16.8-8.21,2.3-12.1,3.98-10.36,11.35-17.16,21.85-20.63,2.59-.85,5.26-1.35,7.97-1.61,3.18-.3,6.35-.28,9.52.06,4.58.5,8.91,1.82,12.91,4.12,2.18,1.25,4.13,2.78,5.79,4.67,2.88,3.29,4.48,7.11,4.83,11.47.24,2.91-.08,5.75-.99,8.52-.9,2.77-2.52,5.01-4.78,6.82-1.99,1.6-4.22,2.75-6.59,3.65-2.95,1.12-6,1.87-9.1,2.4-3.23.55-6.49.85-9.77,1.03-4.72.26-9.44.19-14.16.09-.92-.02-1.83-.09-2.75-.13-.19,0-.39,0-.69,0Z"/>
  <path class="cls-51" d="m327.09,75.3c0-6.59,0-13.17,0-19.76,0-1.93.12-3.86.45-5.77,1.43-8.3,6.01-14.14,13.71-17.52,2.59-1.14,5.32-1.79,8.13-2.19,3.13-.45,6.27-.49,9.42-.33,3.15.17,6.25.63,9.24,1.72.8.29,1.59.62,2.34,1.02.72.39,1.4.85,2.01,1.41,1.41,1.31,2.2,2.9,2.27,4.84.05,1.26-.12,2.48-.63,3.64-.55,1.27-1.29,2.43-2.2,3.47-.4.45-.45.45-1.01.21-2.08-.88-4.22-1.61-6.43-2.09-2.58-.56-5.19-.72-7.82-.58-1.58.09-3.13.3-4.64.75-4.2,1.25-6.99,3.97-8.41,8.11-.55,1.59-.84,3.23-1,4.89-.13,1.37-.14,2.75-.14,4.12,0,12.06,0,24.11,0,36.17,0,.26,0,.52,0,.79-.01.53-.01.55-.56.55-2.46,0-4.92,0-7.38,0-2.1,0-4.2,0-6.29,0-.26,0-.52,0-.79-.02-.14,0-.24-.1-.25-.25-.01-.29-.02-.59-.02-.88,0-7.44,0-14.87,0-22.31Z"/>
  <path class="cls-101" d="m185.31,135.08c0-1.61-.03-3.21,0-4.81.05-2.27,1.18-3.9,3.18-4.93.76-.39,1.59-.58,2.44-.72,1.25-.2,2.48-.12,3.7.2,1.33.35,2.5.98,3.36,2.09.04.05.08.1.13.15.13.14.28.17.42.02.16-.16.31-.34.46-.51,1.08-1.15,2.43-1.71,3.97-1.96,1.36-.21,2.69-.09,3.98.27,1.99.56,3.39,1.8,4.02,3.82.19.59.29,1.21.29,1.83,0,3.18,0,6.36,0,9.53,0,.16,0,.33,0,.49-.02.31-.12.42-.42.43-.62.01-1.25.02-1.87,0-1.62-.02-1.41.2-1.41-1.4-.01-2.52-.01-5.04,0-7.57,0-.63-.05-1.25-.23-1.85-.36-1.25-1.21-1.98-2.49-2.21-1.03-.18-2.02-.1-2.94.44-.88.51-1.4,1.27-1.6,2.25-.14.67-.21,1.35-.21,2.05.01,2.39,0,4.78,0,7.17,0,.26,0,.52-.02.79,0,.19-.12.31-.31.31-1.02,0-2.03.01-3.05,0-.18,0-.31-.11-.32-.31-.01-.26-.02-.52-.02-.78,0-2.56,0-5.11,0-7.67,0-.66-.01-1.31-.23-1.94-.46-1.33-1.4-2.09-2.78-2.32-1.03-.17-2.02-.05-2.93.51-.88.55-1.25,1.4-1.37,2.38-.05.39-.04.78-.04,1.18,0,2.69,0,5.37,0,8.06,0,.9,0,.9-.93.91-.75,0-1.51,0-2.26,0-.45,0-.52-.08-.54-.51-.01-.43,0-.85,0-1.28,0-1.38,0-2.75,0-4.13,0,0,.01,0,.02,0Z"/>
  <path class="cls-94" d="m11.18,136.72c.61-1.45,1.22-2.86,1.8-4.28,1.42-3.55,2.82-7.12,4.24-10.67.23-.58.52-1.13.8-1.68.25-.51.71-.79,1.23-.89.82-.16,1.63-.13,2.38.33.44.27.52.41.34.87-.25.67-.52,1.34-.8,2.01-1.68,3.98-3.35,7.96-5.05,11.93-.85,1.99-1.74,3.95-2.62,5.93-.07.15-.14.3-.22.44-.1.19-.26.29-.48.29-1.18,0-2.36,0-3.54,0-.3,0-.48-.15-.61-.41-.41-.85-.85-1.7-1.25-2.56-.88-1.9-1.76-3.8-2.6-5.72-1.39-3.18-2.76-6.37-4.03-9.6-.25-.64-.45-1.3-.41-2,.05-.9.57-1.48,1.45-1.56.39-.04.79-.04,1.18.02.64.11,1.1.38,1.35,1.09,1.55,4.35,3.27,8.63,5.08,12.87.46,1.08.93,2.17,1.39,3.25.05.12.09.25.35.34Z"/>
  <path class="cls-21" d="m221.91,141.37c-.26,0-.52,0-.78,0-.51-.13-1.02-.24-1.52-.4-3.24-1.01-5.25-3.87-5.38-7.11-.04-.98-.03-1.96.2-2.93.86-3.74,3.92-6,7.25-6.34,1.29-.13,2.55-.07,3.79.25,1.09.28,2.09.77,2.89,1.59,1.41,1.46,1.75,3.16,1.14,5.07-.28.88-.91,1.5-1.68,1.98-.59.36-1.23.61-1.9.78-1.46.38-2.96.55-4.46.58-.95.01-1.9-.01-2.85-.01-.32,0-.42.13-.33.42.44,1.43,1.41,2.33,2.83,2.75,1.64.48,3.3.45,4.93-.07.5-.16.98-.37,1.46-.57.23-.1.38-.04.48.16.34.63.68,1.27,1.02,1.9.16.31.12.42-.22.63-.71.43-1.48.7-2.27.9-.6.15-1.21.27-1.82.41-.32,0-.65,0-.97,0-.6,0-1.2,0-1.8,0Z"/>
  <path class="cls-40" d="m285.86,141.38c-.13,0-.26,0-.39,0-.5-.14-1.02-.25-1.51-.42-2.91-1.02-4.64-3.06-5.2-6.09-.37-1.99-.18-3.92.73-5.74,1.34-2.66,3.54-4.1,6.48-4.52,1.32-.19,2.61-.09,3.89.24,1.23.31,2.29.92,3.17,1.87,1.33,1.44,1.41,3.79.7,5.25-.25.51-.62.91-1.08,1.24-.98.71-2.1,1.05-3.26,1.28-1.68.33-3.38.4-5.08.37-.36,0-.72.01-1.08-.01-.71-.06-.63.2-.45.69.41,1.1,1.17,1.88,2.26,2.32,1.15.46,2.34.59,3.57.47,1.12-.11,2.19-.38,3.2-.89.41-.2.45-.18.67.24.31.58.61,1.16.9,1.74.2.39.17.44-.24.68-.89.52-1.86.8-2.85,1.04-.41.1-.83.16-1.25.24-.32,0-.65,0-.97,0-.54,0-1.08,0-1.62,0-.19,0-.39,0-.58,0Z"/>
  <path class="cls-14" d="m328.94,141.38c-.13,0-.26,0-.39,0-.47-.13-.95-.24-1.42-.38-3.32-.98-5.36-3.96-5.47-7.16-.04-1.22-.01-2.42.4-3.59,1.17-3.33,3.54-5.15,7.01-5.64,1.29-.18,2.55-.08,3.8.23,1.13.29,2.16.79,2.97,1.65,1.39,1.48,1.7,3.19,1.07,5.09-.29.85-.9,1.44-1.64,1.89-.62.38-1.3.62-2,.81-1.43.38-2.9.51-4.38.55-.95.03-1.9,0-2.85-.01-.33,0-.42.12-.34.42.22.78.64,1.43,1.26,1.95.65.54,1.4.85,2.22,1,1.82.33,3.59.14,5.29-.6.18-.08.36-.16.54-.24.14-.06.27-.03.34.1.39.72.77,1.44,1.15,2.17.07.14-.01.26-.12.34-.41.27-.86.48-1.31.66-.95.38-1.96.53-2.94.76-.32,0-.64,0-.97.01-.54,0-1.08,0-1.62,0-.19,0-.39,0-.58,0Z"/>
  <path class="cls-36" d="m419.63,141.38c-.26,0-.51,0-.77-.01-.54-.14-1.09-.25-1.61-.43-3.05-1.01-5.09-3.69-5.28-6.89-.08-1.28-.04-2.55.38-3.78,1.15-3.34,3.53-5.15,6.99-5.65,1.32-.19,2.62-.09,3.89.25,1.09.29,2.09.78,2.88,1.61,1.39,1.47,1.73,3.18,1.09,5.08-.28.85-.89,1.44-1.63,1.9-.62.38-1.29.63-1.99.81-1.47.39-2.96.53-4.47.56-.95.02-1.9,0-2.85-.01-.24,0-.36.15-.29.38.37,1.24,1.15,2.1,2.33,2.62.82.36,1.7.48,2.59.51,1.26.04,2.48-.16,3.64-.67.3-.13.6-.25.91-.38.35.2.42.58.59.88.23.4.44.81.64,1.22.18.37.15.46-.25.7-.68.41-1.42.67-2.18.87-.6.15-1.21.27-1.82.41-.32,0-.64.01-.96.02-.61,0-1.21,0-1.82,0Z"/>
  <path class="cls-102" d="m168.82,141.37c-.32,0-.65,0-.97,0-.67,0-1.34,0-2.01,0-.39,0-.78,0-1.17,0-1.35-.24-2.7-.51-4-.99-.52-.19-1.03-.42-1.51-.71-.2-.12-.27-.31-.16-.51.36-.66.73-1.31,1.11-1.97.07-.13.21-.16.34-.1.18.08.35.17.53.25,1.89.82,3.86,1.23,5.92,1.23.72,0,1.44-.12,2.13-.33.22-.07.43-.16.64-.25,1.02-.49,1-2.17.02-2.69-.41-.21-.84-.37-1.3-.43-1.04-.14-2.08-.28-3.12-.39-.98-.11-1.95-.27-2.88-.59-.78-.27-1.5-.65-2.09-1.25-.75-.76-1.14-1.67-1.16-2.73,0-.49-.03-.98.1-1.47.32-1.28,1.1-2.22,2.22-2.87.95-.55,1.98-.84,3.08-.94.55-.05,1.11-.16,1.66-.14,1.6.05,3.21.1,4.77.55.48.14.93.33,1.35.58.22.13.43.3.62.48.49.49.65,1.09.33,1.8-.15.33-.36.62-.65.85-.16.13-.33.21-.53.06-1.04-.74-2.24-1.09-3.47-1.29-1.43-.23-2.87-.28-4.29.07-.25.06-.5.16-.73.29-.57.32-.8.83-.76,1.48.03.6.36.96.86,1.21.78.38,1.63.46,2.47.57,1.33.18,2.67.27,3.98.59.83.2,1.63.5,2.35.96,1.17.75,1.73,1.83,1.81,3.2.14,2.41-1.28,4.05-3.14,4.85-.75.33-1.55.51-2.36.64Z"/>
  <path class="cls-87" d="m95.84,140.77c-.01-.85-.02-1.7-.04-2.55,0-.33.13-.54.37-.75,1.88-1.68,3.75-3.37,5.61-5.08,1.14-1.04,2.25-2.1,3.37-3.16.19-.18.37-.37.55-.56.04-.04.04-.12.04-.17,0-.08-.06-.11-.14-.11-.26,0-.52-.01-.79-.01-2.29,0-4.59,0-6.88,0-.36,0-.71-.02-1.07-.12-.66-.18-.97-.63-1.04-1.27-.07-.56.03-1.11.25-1.63.11-.27.31-.42.6-.43.23-.01.46-.01.69-.01,3.64,0,7.28,0,10.92,0,.53,0,1.05.06,1.56.15.9.15,1.34.71,1.38,1.62.03.66-.19,1.22-.58,1.73-.2.26-.43.49-.66.73-1.82,1.84-3.73,3.59-5.66,5.31-1.03.92-2.04,1.84-3.06,2.77-.12.11-.23.23-.34.35-.08.1-.02.21.07.22.26.03.52.03.78.03,2.85,0,5.7,0,8.56,0,1.03,0,1.01-.03,1.01,1.04,0,.56,0,1.11,0,1.67,0,.16,0,.33-.17.43-1.04-.14-2.09-.06-3.14-.06-3.7-.01-7.41,0-11.11,0-.35,0-.72.09-1.06-.09Z"/>
  <path class="cls-26" d="m305.94,141.38c-.13,0-.26,0-.39,0-.26,0-.52,0-.77,0-.6,0-1.21,0-1.81,0-.26,0-.52,0-.78,0-.19,0-.39,0-.58,0-1.11-.26-2.25-.42-3.34-.8-.71-.25-1.42-.5-2.07-.89-.27-.16-.3-.27-.15-.56.12-.23.24-.47.38-.69.29-.44.45-.95.81-1.34.54.02.97.36,1.45.54,1.68.61,3.41.93,5.19.95.63,0,1.24-.11,1.85-.23.35-.07.7-.2,1.01-.38.99-.57,1.03-1.99.07-2.63-.39-.26-.83-.4-1.28-.47-1.04-.15-2.08-.29-3.12-.4-.81-.09-1.62-.21-2.42-.41-.67-.17-1.3-.44-1.89-.8-1.66-1.02-2.16-2.9-1.9-4.42.29-1.69,1.26-2.85,2.8-3.54.87-.39,1.8-.57,2.75-.7,1.45-.2,2.88-.06,4.31.06,1.01.09,2,.33,2.93.77.36.17.7.37.97.66.59.62.65,1.34.19,2.06-.07.11-.15.22-.24.31-.51.55-.57.48-1.06.17-1.22-.77-2.59-1.1-4-1.23-.81-.07-1.64-.03-2.46-.02-.6,0-1.17.17-1.7.44-.57.3-.88.76-.87,1.42.01.67.38,1.09.96,1.35.73.33,1.51.42,2.29.52,1.36.17,2.74.28,4.08.6.93.22,1.82.55,2.6,1.11.9.65,1.42,1.52,1.52,2.63.02.23.03.46.03.69.05,1.89-.82,3.26-2.4,4.21-.62.37-1.3.62-2,.79-.32.07-.64.15-.96.22Z"/>
  <path class="cls-18" d="m339.83,135.74c0-1.47-.02-2.95,0-4.42.02-1.23.27-2.4.93-3.46.85-1.37,2.05-2.28,3.56-2.79,1.38-.47,2.79-.65,4.25-.49.95.1,1.88.26,2.76.63,2.64,1.09,4.03,3.09,4.11,5.91.08,3.08.02,6.15.02,9.23,0,.13,0,.26-.03.39-.02.14-.13.23-.26.25-.19.02-.39.02-.59.02-.79,0-1.57,0-2.36,0-.38,0-.44-.08-.46-.47-.01-.26,0-.52,0-.79,0-2.46,0-4.91,0-7.37,0-.63-.06-1.25-.24-1.84-.42-1.46-1.39-2.32-2.91-2.57-.72-.12-1.44-.1-2.15.03-1.26.22-2.14.94-2.59,2.14-.27.71-.37,1.45-.37,2.21,0,2.49,0,4.98,0,7.46,0,1.33.14,1.18-1.22,1.19-.62,0-1.24,0-1.87,0-.54,0-.6-.06-.6-.64,0-1.08,0-2.16,0-3.24,0-.46,0-.92,0-1.37h0Z"/>
  <path class="cls-45" d="m402.35,141.38c-.13,0-.26,0-.39,0-.19,0-.39,0-.58,0-.47,0-.95,0-1.42,0-.26,0-.51,0-.77,0-.66-.19-1.36-.24-1.96-.62-.55-1.08-.27-2.22-.2-3.33.02-.33.28-.49.63-.44.43.06.79.29,1.18.46,1.88.78,3.69.56,5.11-.83,1.49-1.46,1.83-3.35,1.14-5.36-.65-1.89-2.01-2.94-3.98-3.16-.97-.11-1.87.2-2.74.63-.37.18-.71.52-1.17.24-.48-1.1-.25-2.25-.18-3.38.02-.35.4-.39.58-.6,1.01-.43,2.09-.54,3.16-.43,2.18.23,2.75.51,4.74,2.09.22-.06.16-.25.16-.4,0-2.16,0-4.32,0-6.48,0-.29,0-.59.02-.88.07-.71.53-1.21,1.24-1.32.38-.06.78-.06,1.17-.03,1.15.1,1.18.14,1.18,1.32,0,4.51,0,9.03,0,13.54,0,1.49-.2,2.93-.8,4.3-1.03,2.34-2.79,3.82-5.27,4.45-.29.07-.57.14-.86.22Z"/>
  <path class="cls-15" d="m55.72,135.43c0,1.47,0,2.95,0,4.42,0,.23,0,.46,0,.69-.02.36-.1.45-.49.45-.88.01-1.77,0-2.65,0-.03,0-.07,0-.1,0-.23-.02-.35-.15-.36-.38,0-.26-.01-.52-.01-.79,0-2.36-.01-4.72,0-7.07,0-.66-.07-1.31-.2-1.95-.3-1.44-1.23-2.66-3.17-2.86-.6-.06-1.17-.04-1.75.03-1.48.19-2.51,1.11-2.9,2.55-.16.58-.2,1.16-.2,1.75,0,2.52,0,5.04,0,7.56,0,.26,0,.52-.01.79,0,.24-.15.36-.38.36-.98,0-1.97,0-2.95,0-.23,0-.36-.13-.37-.37,0-.23-.01-.46-.01-.69,0-2.91,0-5.83,0-8.74,0-2.63,1.57-5,4.04-5.96,2.8-1.09,5.59-1.06,8.26.36,2.06,1.09,3.21,2.86,3.27,5.23.04,1.54,0,3.08,0,4.62h0Z"/>
  <path class="cls-4" d="m241.81,141.38c-.26,0-.52,0-.78,0-.54,0-1.08,0-1.63,0-.26,0-.52,0-.78,0-.83-.17-1.66-.36-2.44-.73-2.11-1.01-3.35-2.65-3.69-4.97-.08-.52-.11-1.04-.11-1.56,0-2.32,0-4.65,0-6.97,0-.26-.01-.53.03-.78.12-.79.57-1.22,1.35-1.33.46-.06.92-.06,1.37.01.88.14.95.23.95,1.14,0,2.52,0,5.04,0,7.56,0,.73.11,1.43.36,2.12.39,1.06,1.13,1.75,2.21,2.05,1.03.28,2.07.28,3.1,0,1.29-.36,2.04-1.25,2.35-2.52.15-.6.22-1.22.22-1.85-.02-2.09,0-4.19,0-6.28,0-.23,0-.46,0-.69.04-.91.53-1.45,1.45-1.54.62-.06,1.24-.06,1.84.17.29.11.42.29.42.59,0,.23,0,.46,0,.69,0,2.62,0,5.24,0,7.86,0,.72-.09,1.44-.26,2.14-.58,2.29-2.09,3.72-4.27,4.49-.55.19-1.14.29-1.71.44Z"/>
  <path class="cls-20" d="m259.09,141.37c-.26,0-.52,0-.78,0-.63-.17-1.28-.28-1.89-.51-2.57-.96-4.07-2.87-4.76-5.46-.26-.98-.37-1.99-.37-3.01,0-4.22,0-8.44,0-12.66,0-.33,0-.66.06-.97.11-.66.53-1.05,1.16-1.17.65-.13,1.3-.11,1.94.09.49.15.52.19.54.68,0,.23,0,.46,0,.69,0,2.19,0,4.38,0,6.57v.96c.22.12.33-.03.44-.14,1.36-1.34,3.05-1.9,4.9-1.93.93-.02,1.9.04,2.76.5-.43.39-.58.88-.57,1.46.02.6.1,1.22-.14,1.81-.3.39-.66.18-.98.08-1.94-.59-3.7-.26-5,1.3-1.46,1.75-1.55,3.78-.6,5.81.85,1.82,3.03,2.67,5.3,2.2.42-.09.86-.42,1.28.04.34,1.07-.02,2.21.32,3.28-.37.25-.83.23-1.23.38-.26,0-.52,0-.77,0-.54,0-1.08,0-1.62,0Z"/>
  <path class="cls-22" d="m129.17,136.79c.3-.23.4-.59.55-.91.84-1.88,1.68-3.77,2.5-5.66.51-1.17.97-2.36,1.47-3.54.71-1.68,1.39-1.82,3.12-1.63.13.01.25.07.37.12.79.36.87.43.59,1.24-.47,1.33-1.04,2.62-1.62,3.89-1.52,3.3-3.12,6.56-4.79,9.79-.09.17-.19.34-.28.52-.14.25-.34.38-.64.38-.95,0-1.9,0-2.85,0-.26,0-.42-.12-.54-.35-.35-.67-.73-1.32-1.07-1.99-1.18-2.34-2.37-4.67-3.52-7.02-.68-1.38-1.3-2.79-1.77-4.26-.14-.44-.25-.87-.07-1.34.22-.58.6-.94,1.21-1,.36-.04.72-.02,1.08-.02.69,0,1.11.29,1.37.99,1.28,3.47,2.81,6.84,4.45,10.16.11.23.16.51.45.62Z"/>
  <path class="cls-25" d="m374.14,137.03c.49-1.02.92-1.86,1.29-2.73,1.02-2.34,2.01-4.69,3.01-7.04.21-.48.39-.97.68-1.42.34-.54.82-.82,1.46-.84.66-.02,1.31,0,1.9.35.41.25.49.35.34.78-.26.74-.53,1.48-.84,2.2-1.78,4.12-3.8,8.12-5.84,12.11-.21.4-.46.57-.92.55-.82-.03-1.64-.03-2.46,0-.43.02-.66-.16-.84-.52-1.13-2.21-2.29-4.42-3.42-6.63-.82-1.6-1.58-3.24-2.26-4.9-.21-.51-.4-1.04-.57-1.57-.08-.25-.13-.51-.14-.77-.04-.88.51-1.51,1.38-1.6.36-.04.72-.02,1.08,0,.61.03.99.29,1.22.91,1.3,3.5,2.84,6.9,4.48,10.25.11.23.25.46.46.84Z"/>
  <path class="cls-41" d="m275.45,129.35c0,3.47,0,6.94,0,10.41,0,.26,0,.52,0,.79-.02.37-.09.44-.49.45-.92.01-1.83,0-2.75,0-.39,0-.47-.09-.48-.45-.01-.23,0-.46,0-.69,0-6.64,0-13.29,0-19.93,0-.39-.01-.78.08-1.17.15-.65.55-1.04,1.18-1.16.68-.13,1.36-.11,2.04.12.28.1.45.24.44.55,0,.26,0,.52,0,.79,0,3.44,0,6.87,0,10.31Z"/>
  <path class="cls-39" d="m439.92,141.37c-.13,0-.26,0-.39,0-.19,0-.39,0-.58,0-.47,0-.94,0-1.41,0-.2,0-.4,0-.59.01-1.1-.21-2.17-.52-3.15-1.07-2.48-1.41-3.94-3.54-4.25-6.36-.31-2.76.53-5.19,2.59-7.11,1.38-1.29,3.05-1.99,4.93-2.23.96-.12,1.89-.07,2.84.05.16.02.3.1.46.15-.86.31-1.08.95-.96,1.8.05.37.1.76,0,1.14-.36.4-.85.28-1.29.3-2.5.12-4.36,2.02-4.41,4.51-.07,3.33,1.42,5.02,4.75,5.4.29.03.6.03.8.3.21.39.21.83.16,1.24-.1.81.15,1.38.94,1.68-.14.07-.28.13-.42.2Z"/>
  <path class="cls-46" d="m440.34,141.17c-1.26-.04-1.21.13-1.21-1.23,0-.58,0-1.17,0-1.75.06-.44.46-.4.74-.51,1.89-.74,3.08-2.45,3.15-4.55.06-2.04-1.15-3.97-2.97-4.78-.27-.12-.69-.07-.71-.53-.06-.18-.17-.36-.17-.54-.02-.67-.01-1.35,0-2.02,0-.22.13-.36.35-.38.29-.02.58-.03.86-.05,1.31.15,2.44.73,3.46,1.52,2.06,1.59,3.15,3.7,3.23,6.32.05,1.5-.22,2.92-.93,4.26-1.18,2.2-3.02,3.56-5.39,4.24-.12.03-.26.02-.39.03Z"/>
  <path class="cls-38" d="m262.71,141c-.29-.05-.46-.2-.45-.52,0-.48,0-.96,0-1.45,0-.48,0-.96-.01-1.45.06-.52.53-.72.84-1.03,2.01-2.03,1.88-5.56-.29-7.45-.23-.2-.61-.3-.54-.73,0-.84,0-1.69,0-2.53,0-.65-.02-.83.84-.83.99.2,1.81.74,2.57,1.38,1.74,1.47,2.64,3.4,2.87,5.63.17,1.66-.04,3.27-.79,4.78-1.05,2.13-2.68,3.59-5.03,4.19Z"/>
  <path class="cls-49" d="m388.83,133.2c0,2.23,0,4.45,0,6.68,0,.26,0,.52-.02.79,0,.18-.12.31-.31.31-1.02,0-2.03,0-3.05,0-.15,0-.24-.1-.25-.25-.02-.23-.03-.46-.03-.69,0-4.32,0-8.65,0-12.97,0-.23,0-.46.02-.69.04-.68.43-1.1,1.05-1.27.77-.21,1.56-.16,2.31.14.18.07.24.22.25.38.02.26.01.52.01.79,0,2.26,0,4.52,0,6.78Z"/>
  <path class="cls-52" d="m397.81,137.23c-.06,0-.13,0-.19-.02-.2-.04-.39-.07-.39.24,0,.52,0,1.04,0,1.56,0,.58,0,1.17,0,1.75-1.85-.63-3.18-1.87-4.12-3.55-.69-1.21-1-2.53-1.04-3.93-.05-1.88.35-3.63,1.4-5.2,1.01-1.5,2.34-2.62,4.13-3.09-.26.31-.4.64-.38,1.06.03.78.01,1.57.01,2.35,0,.24.02.46.25.59.02.5-.35.83-.58,1.21-1.21,2.07-1.02,4.37.52,6.18.2.24.5.44.39.84Z"/>
  <path class="cls-12" d="m62.55,125.79c.18.53.23,1.07.22,1.63-.02.91,0,1.82,0,2.73,0,.33.2.25.39.2.24.31.11.63,0,.93-.39,1.15-.4,2.29,0,3.44.1.3.23.62.01.93-.18-.03-.4-.13-.41.19,0,.84-.02,1.67,0,2.5.02.58-.04,1.15-.23,1.7-1.16-.56-1.95-1.51-2.6-2.59-.77-1.28-1.16-2.68-1.16-4.19,0-1.25.12-2.47.58-3.65.6-1.54,1.58-2.76,2.92-3.72.08-.05.18-.07.27-.1Z"/>
  <path class="cls-36" d="m424.76,119.88c-.03.06-.07.15-.14.22-.07.07-.16.11-.25.15-1.67.84-3.34,1.68-5.01,2.51-.46.23-.48.22-.8-.21-.24-.31-.45-.64-.69-.96-.16-.21-.08-.36.1-.49,1.22-.88,2.44-1.76,3.67-2.64.18-.13.4-.23.62-.29,1.18-.33,2.24.35,2.49,1.58,0,.03,0,.06.01.13Z"/>
  <path class="cls-47" d="m389.2,120.04c.08,1.25-1.03,2.25-2.22,2.23-1.22-.02-2.15-.97-2.19-2.18-.05-1.39,1.08-2.29,2.28-2.28.94,0,2.19.82,2.12,2.23Z"/>
  <path class="cls-13" d="m95.84,140.77c4.76,0,9.52,0,14.28,0,.35,0,.72-.12,1.03.16-.26.02-.52.06-.78.06-4.55,0-9.1,0-13.66,0-.23,0-.46-.02-.68-.03-.11,0-.15-.11-.19-.19Z"/>
  <path class="cls-99" d="m214.4,65.09c-.05,3.58-.6,6.95-2.09,10.12-2.81,5.97-7.49,9.66-13.89,11.11-4.39,1-8.74.66-12.92-1.06-5.74-2.37-9.5-6.6-11.37-12.5-.99-3.12-1.29-6.33-1.04-9.6.29-3.72,1.38-7.18,3.32-10.37,2.79-4.58,6.81-7.53,12.01-8.84,2.34-.59,4.71-.72,7.12-.55,3.13.23,6.04,1.12,8.74,2.69,4.48,2.61,7.42,6.44,8.97,11.36.8,2.52,1.11,5.11,1.15,7.63Z"/>
  <path class="cls-99" d="m152.9,132.99c.07,1.32-.32,2.48-1.16,3.47-1.32,1.54-3.02,2.03-4.96,1.55-1.9-.47-3.01-1.77-3.52-3.61-.31-1.13-.23-2.27.17-3.38.61-1.71,1.8-2.81,3.59-3.14,1.92-.35,3.59.17,4.82,1.73.78.98,1.14,2.13,1.06,3.38Z"/>
  <path class="cls-99" d="m27.69,132.31c-.46-.02-.92-.02-1.37-.07-.46-.05-.6-.22-.52-.65.41-2.33,2.02-4.12,4.57-4.2.84-.02,1.63.11,2.37.5,1.16.62,1.26,1.58,1.06,2.49-.13.58-.56.94-1.09,1.19-.6.28-1.24.47-1.88.52-1.04.07-2.08.27-3.13.22Z"/>
  <path class="cls-99" d="m84.38,132.29c-.52-.02-1.05.04-1.56-.08-.28-.07-.4-.21-.36-.48.33-2.39,2.11-4.32,4.63-4.33.7,0,1.36.08,2.01.34.28.11.52.26.75.44.84.65.79,1.65.56,2.41-.15.48-.58.77-1.04.98-.6.28-1.23.47-1.88.52-1.04.07-2.07.26-3.12.2Z"/>
  <path class="cls-99" d="m63.17,135.64c-.13-.43-.28-.86-.4-1.3-.3-1.07-.21-2.12.13-3.16.09-.28.17-.56.26-.83,0,0,0,0,0,0,.12-.1.08-.3.22-.39.43-.4.76-.87,1.25-1.23,2.23-1.6,5.72-1.08,7.12,1.72.86,1.71.85,3.48-.04,5.18-.76,1.45-2,2.29-3.68,2.41-.39.03-.78.02-1.17,0-.95-.05-1.77-.42-2.48-1.04-.34-.3-.65-.64-.97-.96-.17-.08-.12-.28-.24-.39h0Z"/>
  <path class="cls-12" d="m63.16,135.65c.15.09.2.23.24.39-.2-.05-.24-.21-.24-.39Z"/>
  <path class="cls-12" d="m63.37,129.96c-.02.16-.08.3-.22.39,0-.17.04-.32.22-.39Z"/>
  <path class="cls-99" d="m15.79,35.32c0-4.78,0-9.57,0-14.35,0-.26,0-.52,0-.79,0-.19.11-.3.29-.34.93-.21,1.88-.28,2.83-.36,4.58-.4,9.17-.46,13.76-.37,3.61.07,7.2.39,10.7,1.33,1.84.49,3.63,1.12,5.33,1.98,1.17.6,2.26,1.32,3.27,2.17,2.03,1.73,3.41,3.87,4.09,6.45.86,3.25.8,6.48-.16,9.69-.74,2.5-2.16,4.53-4.21,6.13-1.78,1.39-3.79,2.33-5.91,3.04-2.53.85-5.12,1.35-7.77,1.62-4.22.43-8.44.38-12.67.23-2.99-.1-5.94-.5-8.9-.87-.1-.01-.2-.02-.29-.05-.21-.05-.35-.16-.35-.4,0-.26,0-.52,0-.79,0-4.78,0-9.57,0-14.35Z"/>
  <path class="cls-99" d="m107.11,62.19c-2.52-.03-5.05-.06-7.57-.09-.16,0-.33,0-.49-.01-.49-.03-.53-.08-.51-.61.03-1.15.2-2.28.44-3.4.77-3.61,2.2-6.92,4.59-9.76,2.91-3.46,6.59-5.64,11.05-6.46,3.56-.65,7.11-.55,10.61.43,1.33.37,2.59.93,3.76,1.65,3.27,2.01,4.43,5.01,4.13,8.71-.05.55-.19,1.1-.32,1.63-.39,1.59-1.3,2.84-2.62,3.8-1.09.8-2.29,1.4-3.55,1.86-2.1.77-4.26,1.28-6.47,1.61-3.28.5-6.59.62-9.9.61-1.05,0-2.1,0-3.15,0,0,0,0,.02,0,.02Z"/>
  <path class="cls-99" d="m220.2,132.25c-.59,0-1.18.02-1.77,0-.32-.01-.46-.21-.4-.54.38-2.23,1.67-3.76,3.71-4.2.98-.21,1.96-.16,2.9.21.73.29,1.28.74,1.47,1.58.2.94-.19,1.82-1.01,2.22-.65.33-1.35.51-2.06.6-.94.12-1.89.22-2.84.15Z"/>
  <path class="cls-99" d="m284.61,132.26c-.59,0-1.18.01-1.76,0-.37-.01-.46-.15-.41-.5.11-.78.35-1.53.77-2.2.84-1.35,2.08-2.04,3.64-2.15.93-.06,1.83.06,2.65.53.92.53,1.28,1.51.96,2.52-.14.43-.41.73-.79.96-.66.39-1.38.59-2.13.69-.97.13-1.95.22-2.93.16Z"/>
  <path class="cls-99" d="m327.65,132.26c-.59,0-1.18.02-1.76,0-.35-.01-.49-.18-.44-.5.57-3.76,3.78-5.06,6.63-4.04.77.28,1.32.78,1.48,1.66.14.74-.14,1.68-1.02,2.13-.65.33-1.34.51-2.06.6-.94.12-1.88.22-2.83.15Z"/>
  <path class="cls-99" d="m417.9,132.26c-.59,0-1.18.01-1.76,0-.31,0-.43-.14-.39-.43.3-2.54,2.11-4.37,4.55-4.43.59-.01,1.17,0,1.75.19.35.11.66.27.97.45,1.1.66,1.31,2.78-.21,3.49-.63.29-1.28.5-1.97.58-.97.11-1.95.22-2.93.15Z"/>
  <path class="cls-99" d="m397.81,137.23c-.06-.08-.11-.17-.18-.22-2.19-1.76-2.31-5.65-.39-7.7.09-.09.16-.21.24-.31.19-.12.39-.24.58-.37,2.44-1.6,6.22-.83,7.31,2.62.46,1.47.36,2.91-.3,4.29-.65,1.37-1.77,2.16-3.23,2.47-1.26.27-2.47.09-3.59-.56-.14-.08-.29-.15-.44-.22Z"/>
  <path class="cls-99" d="m262.26,128.38c.49.42,1.05.76,1.45,1.3.84,1.17,1.13,2.47.99,3.89-.03.32-.07.65-.15.97-.26,1.01-.8,1.86-1.61,2.52-.23.18-.46.36-.69.54-.62.19-1.22.43-1.89.49-1.15.09-2.21-.13-3.19-.74-1.33-.82-1.95-2.09-2.15-3.58-.18-1.37.08-2.68.87-3.84,1.1-1.63,2.69-2.21,4.59-2.04.62.05,1.2.31,1.79.5Z"/>
  <path class="cls-99" d="m439.32,127.81c.15.15.36.14.54.21,1.34.46,2.31,1.33,2.87,2.64.69,1.62.69,3.25-.08,4.84-.62,1.27-1.62,2.12-2.98,2.51-.19.05-.39.04-.55.18-.62-.03-1.23.02-1.85-.09-1.99-.38-3.46-1.98-3.81-4-.2-1.1-.12-2.2.3-3.28.57-1.49,2.12-3.04,4.4-3.03.39,0,.78.01,1.18.02Z"/>
  <g>
    <path class="cls-94" d="m248.49,89.25c-.11-.16-.24-.3-.34-.47-1.28-2.28-2.04-4.73-2.38-7.32-.08-.61-.08-1.24-.08-1.86,0-10.24,0-20.48,0-30.72,0-3.73,1.15-7.13,3.09-10.29.07-.11.18-.19.27-.28.71.38.53,1.07.53,1.66.02,4.78,0,9.57.01,14.35,0,1.9,0,3.8,0,5.7,0,.66.03,1.31.17,1.95.07.39-.05.71-.38.93-.7.47-1.33,1.04-2.1,1.36,1.18.31,1.78.85,1.86,1.72-.15.65-.14,1.3-.14,1.95,0,6.54,0,13.08,0,19.62,0,.59.17,1.27-.5,1.68Z"/>
    <path class="cls-15" d="m249.73,62.35c-.36-.3-.41-.72-.45-1.14-.02-.26,0-.52,0-.78,0-6.93,0-13.86,0-20.79,0-.45.07-.92-.23-1.33,0,0,0,.01,0,.01.15-.08.1-.28.22-.38.2-.53.62-.92.97-1.35,1.2-1.48,2.6-2.76,4.18-3.84.1-.07.24-.11.36-.16.46.49.32,1.11.32,1.69.01,7.4,0,14.8,0,22.2,0,.59-.06,1.18.18,1.74.3.45.05.73-.31.97-1.25.83-2.46,1.73-3.77,2.47-.08.03-.16.06-.23.09-.07.03-.14.05-.22.08-.1.04-.2.07-.29.12-.05.04-.11.07-.16.11-.05.04-.1.08-.14.13,0,0-.07.07-.07.07-.05.05-.1.09-.16.12-.06.02-.13.02-.19-.01Z"/>
    <path class="cls-10" d="m260.09,98.3c-.67-.03-1.26-.34-1.85-.59-1.14-.47-2.28-.97-3.27-1.74-.46-.33-.5-.82-.5-1.32,0-7.81-.01-15.61,0-23.42,0-.52.03-1.05.45-1.45.6-.33,1.01.07,1.38.41,1.32,1.19,2.07,2.65,2.1,4.46.02,1.69-.12,3.39.11,5.08.18,1.28.55,2.48,1.31,3.54.21.29.39.61.34,1-.14.64-.17,1.3-.17,1.95,0,3.37.01,6.75,0,10.12,0,.66.15,1.3.1,1.95Z"/>
    <path class="cls-10" d="m255.36,58.59c-.55-.11-.55-.11-.57-.48-.01-.29,0-.59,0-.88,0-7.78,0-15.56,0-23.35,0-.43,0-.85-.01-1.28.48-.5,1.12-.76,1.71-1.07,1.03-.53,2.06-1.08,3.22-1.27.18.3.12.64.12.96-.02,3.83,0,7.66,0,11.49,0,.52.01,1.05.18,1.55.14.43-.07.76-.29,1.09-.96,1.41-1.25,3.01-1.29,4.66-.03,1.28,0,2.55,0,3.83,0,1.52-.61,2.8-1.58,3.92-.37.43-.77.92-1.46.81Z"/>
    <path class="cls-25" d="m300.07,45.99c.5.17.95.44,1.35.78.13.48.11.97.11,1.46,0,10.95-.02,21.91.01,32.86,0,.16,0,.33.04.49-.99.68-2.02,1.27-3.11,1.79-.43.2-.59-.11-.75-.4-.14-.27-.16-.56-.16-.86,0-4.5-.09-9,.05-13.5,0-.06,0-.14.03-.19,1.22-2.25,1.38-4.61.73-7.06-.49-4.77-.12-9.55-.23-14.32,0-.36-.02-.73.08-1.07.12-.39.28-.76.82-.56h0c.19.16.39.29.61.37h-.01c.09.16.29.11.41.21Z"/>
    <path class="cls-49" d="m301.58,81.58c-.17-.03-.33-.1-.35-.29-.03-.23-.02-.46-.02-.69,0-10.94,0-21.88,0-32.82,0-.34-.12-.73.2-1.02,0,0,0,0,0,0,.08.15.28.09.38.21h0c.07.08.15.16.26.17.93.46,1.75,1.06,2.48,1.8.15.48.13.97.13,1.46,0,9.25,0,18.5,0,27.76,0,.43-.04.85-.1,1.27-.69.72-1.49,1.3-2.38,1.76-.11.11-.31.06-.39.22h.01c-.09.02-.15.09-.23.15h-.02Z"/>
    <path class="cls-3" d="m297.87,68.42c0,4.46,0,8.93,0,13.39,0,.29-.02.59.02.88.05.32.18.64.58.68-.6.5-1.31.82-1.98,1.21-1.04.59-2.04,1.25-3.13,1.74-.12.1-.31.05-.4.22h.01c-.08.03-.15.09-.22.15-.03.05-.07.06-.12.05-.12.01-.2.09-.28.17h0c-.44.21-.58-.12-.73-.41-.15-.3-.16-.63-.16-.96,0-4.01-.04-8.01.02-12.02,0-.11.03-.22.05-.32.03-.1.07-.19.12-.28.05-.08.12-.15.19-.21.1-.08.22-.14.34-.2.07-.04.14-.08.21-.13.14-.09.25-.21.37-.33.47-.42,1.01-.73,1.56-1,1.16-.58,2.14-1.36,2.99-2.33.14-.16.26-.4.55-.3Z"/>
    <path class="cls-15" d="m255.22,69.77c-.3.2-.41.5-.43.84-.01.2,0,.39,0,.59,0,7.84,0,15.69,0,23.53,0,.42-.04.85.19,1.24-.68-.26-1.19-.77-1.75-1.19-.67-.51-1.29-1.07-1.82-1.73-.16-.68-.08-1.37-.08-2.06,0-7.14,0-14.28,0-21.42,0-.58-.08-1.18.21-1.73.07-.1.16-.18.26-.24.16-.07.32-.05.48-.01.97.39,1.75,1.07,2.62,1.63.19.12.35.29.32.55Z"/>
    <path class="cls-43" d="m307.5,52.1c.62.64,1.06,1.41,1.49,2.17,1.35,2.38,2.2,4.93,2.5,7.66.57,5.16-.71,9.83-3.67,14.06-.13.18-.3.34-.45.51-.49.06-.6-.3-.69-.66-.08-.29-.07-.58-.07-.88,0-7.11,0-14.22,0-21.32,0-.33-.02-.66.08-.98.12-.39.26-.78.81-.57Z"/>
    <path class="cls-32" d="m260.09,98.3c-.29-.25-.41-.54-.4-.94.02-1.73.01-3.46.01-5.2,0-2.26,0-4.51,0-6.77,0-.46,0-.92.4-1.25.04,0,.09.02.13.02.08.03.16.07.24.12.04.02.08.05.12.07.08.04.16.1.24.15,1.26.95,2.62,1.65,4.22,1.83.41.05.95.04,1.07.65-.02,3.54,0,7.08-.01,10.62,0,.52.07,1.06-.31,1.5-1.95.1-3.86-.15-5.71-.8Z"/>
    <path class="cls-17" d="m252.03,67.62c-.26.13-.4.33-.4.62,0,.26,0,.52,0,.79,0,7.56,0,15.12,0,22.69,0,.46.05.92-.23,1.33-1.2-1.09-2.17-2.36-2.92-3.8.25-.38.19-.82.19-1.24,0-3.96,0-7.92,0-11.88,0-3.08,0-6.16,0-9.23,0-.46,0-.93.42-1.24.05-.04.12-.1.17-.08,1.07.48,2.1,1.02,2.76,2.05Z"/>
    <path class="cls-34" d="m268.19,29.48c1.02,0,2.01.2,2.97.58-.46.49-.54,1.08-.53,1.72.01,3.18.01,6.36,0,9.53,0,.55.04,1.12-.3,1.61-.31.36-.64.22-.98.05-.79-.4-1.64-.65-2.48-.93-.45-.15-.91-.07-1.36-.1-1.03-.06-1.32-.33-1.38-1.37-.05-.88-.02-1.76-.02-2.64,0-2.41-.02-4.83,0-7.24.01-1.24.09-1.32,1.35-1.3.91.02,1.82-.1,2.73.08Z"/>
    <path class="cls-48" d="m307.5,52.1c-.34.03-.55.2-.57.55-.01.23-.01.46-.01.69,0,7.29,0,14.59,0,21.88,0,.23,0,.46,0,.69,0,.3.18.48.44.59-.44.81-1.13,1.41-1.75,2.06-.31.32-.61.67-1.03.88-.14-.1-.21-.24-.22-.42,0-.26,0-.52,0-.78,0-9.39,0-18.77,0-28.16,0-.38-.14-.79.18-1.12,1.15.89,2.16,1.92,2.95,3.14Z"/>
    <path class="cls-98" d="m275.64,96.54c-.5.43-1.11.66-1.7.92-1.1.47-2.21.92-3.41,1.09-.27-.24-.3-.57-.3-.9-.02-4.1-.04-8.21,0-12.31.1-.38.38-.6.69-.79,1.29-.78,2.61-1.51,3.91-2.26.32-.18.72-.47.94.15-.08,4.34-.02,8.69-.03,13.03,0,.36.01.72-.11,1.07Z"/>
    <path class="cls-33" d="m268.19,29.48c-.91,0-1.83,0-2.74.01-.23,0-.46,0-.68.03-.18.02-.3.14-.31.32-.02.23-.02.46-.02.68,0,3.33,0,6.66,0,9.99,0,1.13.04,1.16,1.15,1.17.39,0,.78,0,1.18,0,.17,0,.32.06.43.19-.35.34-.79.27-1.2.25-1.97-.11-3.63.59-5.11,1.83-.27.22-.5.53-.91.5-.26-.11-.43-.29-.44-.59,0-.23,0-.46,0-.69,0-3.89,0-7.78,0-11.67,0-.42-.05-.85.19-1.24.54-.33,1.16-.39,1.75-.53,2.04-.49,4.11-.52,6.19-.41.2.01.39.03.55.16Z"/>
    <path class="cls-98" d="m270.11,43.07c.17-.5.22-1,.22-1.53-.01-3.35,0-6.7,0-10.06,0-.2,0-.39,0-.59,0-.63-.03-.85.83-.84.19.03.39.02.57.09,1.3.45,2.62.88,3.77,1.67-.3,4.43-.08,8.86-.13,13.29,0,.2.02.39,0,.58-.09.59-.47.45-.79.27-1.37-.76-2.77-1.47-4.06-2.37-.12-.13-.23-.27-.34-.4-.02-.04-.04-.08-.06-.11Z"/>
    <path class="cls-37" d="m288.24,89.27c-.58.48-1.26.8-1.91,1.17-.94.53-1.83,1.14-2.82,1.57-.79-.2-.67-.88-.68-1.43-.04-2.42-.03-4.84-.01-7.25.01-1.73-.08-3.46.05-5.19.02-.09.02-.21.08-.27,1.26-1.19,2.81-1.92,4.34-2.65.22-.1.44.05.54.3.16.48.12.97.12,1.46,0,3.46,0,6.93,0,10.39,0,.66,0,1.31.3,1.92Z"/>
    <path class="cls-19" d="m275.64,96.54c-.06-.11-.17-.21-.18-.33-.03-.29-.02-.58-.02-.88,0-3.84,0-7.68,0-11.53,0-.56.02-1.1.2-1.63-.05-.34.22-.45.43-.58.96-.6,1.95-1.16,2.96-1.7.35-.19.74-.37.96.19.14.48.1.98.1,1.46,0,3.86,0,7.72.01,11.58,0,.3-.02.59-.07.88-.45.44-1.04.66-1.57.96-.93.53-1.82,1.14-2.8,1.56Z"/>
    <path class="cls-42" d="m286.1,37.93c.46.1.81.4,1.2.63.64.38,1.33.68,1.91,1.16-.17,4.11-.03,8.22-.08,12.33,0,.52.05,1.05-.1,1.56-.13.38-.42.39-.71.25-1.29-.62-2.54-1.33-3.73-2.13-.22-.15-.3-.42-.35-.68-.12-4.22-.06-8.43-.03-12.65,0-.5-.03-1.21.88-1.05h0c.21.42.62.48,1.01.58Z"/>
    <path class="cls-24" d="m270.52,85.12c-.03.09-.1.2-.08.28.15.71.08,1.43.08,2.15.01,3.66,0,7.33.01,10.99-.79.36-1.64.4-2.48.51-.74.1-1.5.12-2.25.05,0-3.72,0-7.44,0-11.17,0-.42-.05-.85.2-1.24.1-.12.23-.17.38-.2.36-.07.76.02,1.09-.22.81-.39,1.67-.66,2.44-1.13.19-.12.41-.2.62-.02Z"/>
    <path class="cls-27" d="m288.24,89.27c-.38-.04-.59-.24-.6-.64,0-.26,0-.52,0-.78,0-4.2,0-8.4-.01-12.59-.02-.27.18-.41.36-.53.97-.64,2-1.18,3-1.75.22-.13.47-.23.73-.08.02.39.04.78.04,1.17,0,3.78,0,7.57,0,11.35,0,.26-.03.53.02.78.06.32.15.65.57.7-1.19.81-2.45,1.52-3.74,2.16-.1.12-.29.07-.38.21h0Z"/>
    <path class="cls-14" d="m292.58,41.67c1.17.56,2.3,1.21,3.37,1.95-.29,4.01-.06,8.02-.14,12.03-.01.62.06,1.25-.28,1.81-.17.24-.42.33-.68.2-.98-.49-1.95-1-2.83-1.68-.18-.14-.27-.36-.31-.59-.14-4.23-.06-8.46-.03-12.69,0-.51,0-1.2.89-1.03Z"/>
    <path class="cls-5" d="m280.02,94.01c-.14-.1-.23-.23-.24-.4,0-.29-.01-.59-.01-.88,0-4.31,0-8.62,0-12.93,0-.44.37-.61.68-.74.91-.36,1.58-1.27,2.68-1.2,0,4.27,0,8.53,0,12.8,0,.49-.05.99.39,1.35-1.12.75-2.27,1.43-3.48,2.01Z"/>
    <path class="cls-2" d="m285.09,37.35c-.39.04-.59.25-.59.64,0,.26,0,.52,0,.78,0,3.81,0,7.62,0,11.42,0,.39-.01.78-.02,1.17-1.4-.22-2.53-.91-3.44-1.99,0-3.8,0-7.59,0-11.39,0-.56-.03-1.12.03-1.67.05-.41.05-.89.66-.92,1.16.58,2.3,1.21,3.37,1.95Z"/>
    <path class="cls-31" d="m292.58,41.67c-.38.04-.6.23-.61.63,0,.26,0,.52,0,.78,0,4.2,0,8.4-.01,12.6-1.28-.19-2.34-.77-3.14-1.81,0-4.28,0-8.56,0-12.84,0-.26,0-.52,0-.78.01-.25.16-.42.38-.53,0,0,0,0,0,0,.07.08.15.15.27.17,1.09.5,2.12,1.09,3.1,1.78Z"/>
    <path class="cls-96" d="m275.24,46.03c-.09-.24-.19-.48-.19-.75,0-4.22,0-8.44,0-12.66,0-.36.1-.64.45-.79,1.09.5,2.13,1.09,3.11,1.79-.21,3.03-.04,6.06-.1,9.09-.03,1.59.11,3.19-.09,4.78-.07.19-.18.43-.4.34-1.04-.41-2.15-.73-2.78-1.79Z"/>
    <path class="cls-7" d="m278.2,47.75c0-4.33,0-8.67,0-13,0-.26,0-.52.02-.78.01-.24.19-.32.39-.36,0,0,0,0,0,0,.09.14.28.09.38.21.96.45,1.87.98,2.74,1.58-.22.11-.36.28-.37.53-.01.26,0,.52,0,.78,0,3.61,0,7.23,0,10.84,0,.52.06,1.04-.12,1.55-.04.12.08.3.12.46-.11.09-.25.15-.36.07-.94-.6-2.13-.84-2.78-1.88Z"/>
    <path class="cls-1" d="m295.31,57.61c.19-.53.21-1.08.21-1.64,0-3.66,0-7.32,0-10.98,0-.26,0-.52,0-.78,0-.3.18-.48.43-.6,1.08.51,2.12,1.1,3.1,1.79-.39.04-.59.25-.59.64,0,.26,0,.52,0,.79,0,4.03,0,8.06,0,12.09,0,.55-.03,1.1.15,1.65.1.3.03.65.04.98-.25.04-.33-.15-.42-.32-.65-1.25-1.46-2.36-2.67-3.15-.16-.1-.32-.24-.25-.47Z"/>
    <path class="cls-2" d="m286.1,37.93c-.1,0-.19,0-.29.02q-.65.08-.72-.6c.4.09.71.33,1.01.58Z"/>
    <path class="cls-1" d="m299.67,45.78c-.31.04-.5-.09-.61-.37.26.04.47.15.61.37Z"/>
    <path class="cls-1" d="m300.07,45.99c-.18,0-.34-.01-.41-.22.17,0,.32.06.41.22Z"/>
    <path class="cls-25" d="m301.8,46.99c-.16,0-.31-.04-.38-.21.16,0,.3.06.38.21Z"/>
    <path class="cls-27" d="m292.96,86.53c.07-.19.22-.22.4-.22-.09.15-.23.21-.4.22Z"/>
    <path class="cls-96" d="m278.98,33.82c-.16,0-.31-.04-.38-.21.16,0,.3.06.38.21Z"/>
    <path class="cls-25" d="m301.82,81.42c.07-.19.22-.22.39-.22-.09.15-.22.21-.39.22Z"/>
    <path class="cls-94" d="m249.28,37.95c0,.17-.05.31-.22.38,0-.16.07-.3.22-.38Z"/>
    <path class="cls-37" d="m288.24,89.27c.07-.17.22-.21.38-.21-.08.15-.22.2-.38.21Z"/>
    <path class="cls-42" d="m289.48,39.89c-.12,0-.21-.06-.27-.17.12,0,.21.06.27.17Z"/>
    <path class="cls-25" d="m301.61,81.57c.08-.05.15-.11.23-.16-.03.11-.11.16-.23.16Z"/>
    <path class="cls-25" d="m302.07,47.16c-.12,0-.21-.06-.26-.17.12,0,.21.06.26.17Z"/>
    <path class="cls-27" d="m292.76,86.68c.07-.05.14-.11.22-.16-.03.11-.11.16-.22.16Z"/>
    <path class="cls-27" d="m292.36,86.9c.06-.11.15-.17.28-.17-.06.11-.15.16-.28.17Z"/>
    <path class="cls-99" d="m295.31,57.61s.03.06.06.08c1.48.92,2.54,2.19,3.22,3.79.01.03.04.05.07.07.04.19.07.38.12.57.54,2.01.34,3.93-.65,5.77-.09.17-.17.35-.25.53-.09.09-.18.18-.26.28-.72.94-1.6,1.68-2.63,2.26-.76.43-1.54.81-2.24,1.35-.08.16-.28.12-.39.23h0c-.09.12-.28.08-.38.21h-.01c-.07.07-.14.14-.23.17,0,0-.01-.02-.01-.02-.65.21-1.2.62-1.78.96-.78.45-1.6.84-2.31,1.4-.57.16-1.03.53-1.53.82-1,.58-2.04,1.1-2.98,1.78-1.17.56-2.29,1.2-3.35,1.94-1.13.51-2.16,1.2-3.23,1.8-.31.17-.65.29-.89.58-.8.29-1.48.79-2.2,1.21-.98.57-2,1.05-2.91,1.74-.03,0-.07,0-.09.02-.92.53-1.87.97-2.86,1.34-.37.29-.84-.02-1.21.21-.12,0-.24,0-.35,0-1.33-.12-2.64-.33-3.83-1-.6-.33-1.12-.77-1.68-1.16-.06-.07-.13-.13-.19-.19h0c-.06-.07-.12-.14-.19-.2,0,0,0,0,0,0-.38-.6-.85-1.15-1.16-1.81-.52-1.11-.74-2.29-.77-3.5-.02-1.3-.02-2.61,0-3.91.02-2.13-.91-3.75-2.59-4.99-.1-.07-.23-.11-.35-.16-.92-.74-1.89-1.4-2.93-1.96-.11-.03-.18-.1-.26-.18,0,0,0,0,0,0-.95-.7-1.88-1.43-2.93-1.97-.26-.35-.67-.5-1-.75-.28-.21-.58-.4-.93-.64.28-.32.6-.51.9-.73.55-.4,1.17-.69,1.65-1.18.06,0,.1-.02.14-.06.07-.05.14-.1.2-.16h0c.06-.07.13-.15.22-.19h-.01c.08-.14.28-.09.38-.21h0c.07-.08.15-.15.25-.18.12-.05.25-.09.35-.16,1.25-.83,2.49-1.67,3.73-2.5.13-.09.25-.21.37-.31,1.84-1.1,2.72-2.75,2.8-4.85.04-1.21,0-2.41.01-3.62,0-.55.04-1.1.1-1.66.16-1.37.66-2.58,1.5-3.66.08-.1.12-.23.18-.34.56-.49,1.09-1.01,1.72-1.42,1.21-.77,2.51-1.2,3.95-1.19.52,0,1.04.02,1.56.03,1.03.27,1.98.73,2.94,1.19,0,0,0,0,0,0,.11.11.31.07.39.23.42.43.98.63,1.49.92,1.07.62,2.11,1.3,3.24,1.81.93.67,1.93,1.22,2.96,1.72,1.02.66,2.04,1.29,3.14,1.8,1,.68,2.04,1.29,3.13,1.81.42.42.97.62,1.47.91.95.54,1.86,1.16,2.87,1.6,1,.69,2.04,1.29,3.14,1.81,1.07.73,2.19,1.38,3.35,1.94Z"/>
    <path class="cls-94" d="m250.66,61.74c-.08.15-.22.21-.38.22.06-.18.21-.22.38-.22Z"/>
    <path class="cls-94" d="m250.91,61.56c-.08.06-.17.12-.25.18.05-.11.13-.17.25-.18Z"/>
    <path class="cls-94" d="m250.28,61.95c-.03.11-.11.17-.22.19.07-.06.14-.13.22-.19Z"/>
    <path class="cls-94" d="m250.07,62.13c-.03.09-.09.15-.2.16.07-.05.13-.11.2-.16Z"/>
    <path class="cls-27" d="m292.35,72.54c.08-.16.23-.2.39-.23-.06.2-.21.23-.39.23Z"/>
    <path class="cls-27" d="m291.98,72.75c.08-.15.22-.2.38-.21-.07.17-.22.21-.38.21Z"/>
    <path class="cls-27" d="m291.74,72.92c.03-.12.11-.16.23-.17-.08.06-.15.11-.23.17Z"/>
    <path class="cls-17" d="m252.03,67.62c.09.06.17.12.26.18-.12-.01-.21-.07-.26-.18Z"/>
    <path class="cls-10" d="m260.1,84.14c.1.03.17.09.19.2-.06-.07-.13-.13-.19-.2Z"/>
    <path class="cls-10" d="m260.29,84.35c.1.02.17.09.19.19-.06-.06-.13-.13-.19-.19Z"/>
    <path class="cls-34" d="m270.51,43.3c-.16-.03-.31-.08-.39-.23.18,0,.34.03.39.23Z"/>
    <path class="cls-32" d="m266.35,86.69c.38-.24.8-.16,1.21-.21-.08.15-.22.22-.38.22-.28,0-.56,0-.83-.01Z"/>
    <path class="cls-50" d="m285.49,65.07c.01.48-.19.85-.54,1.13-.18.14-.39.25-.59.36-4.42,2.55-8.85,5.1-13.27,7.65-.2.11-.4.22-.6.32-.87.43-1.94-.33-1.94-1.17,0-.23,0-.46,0-.69,0-5.08,0-10.15,0-15.23,0-.2.01-.39,0-.59-.05-.85,1.03-1.7,1.97-1.22.2.1.4.21.6.33,4.4,2.53,8.79,5.07,13.19,7.6.23.13.46.26.66.42.36.28.54.65.52,1.09Z"/>
  </g>
</svg>