<svg width="99" height="25" viewBox="0 0 99 25" fill="none" xmlns="http://www.w3.org/2000/svg">
<path fill-rule="evenodd" clip-rule="evenodd" d="M17.5182 0.856323C21.6175 0.856323 24.9526 4.20655 24.9536 8.32496C27.5954 9.10599 29.5298 11.5635 29.5298 14.4675C29.5298 17.9963 26.6735 20.8674 23.1617 20.8691L22.1657 20.8878C21.9715 20.8895 21.8126 20.7325 21.811 20.5371L21.8032 19.579C21.8018 19.3838 21.958 19.224 22.1524 19.2227L23.1581 19.2039C25.7576 19.2039 27.8723 17.079 27.8723 14.4675C27.8723 12.0003 25.9853 9.96822 23.5856 9.75049C23.473 9.74038 23.3804 9.64344 23.3804 9.52988V8.60235L23.3812 8.32698C23.3812 5.12397 20.7064 2.51779 17.5182 2.51779C14.7083 2.51779 12.3172 4.52859 11.8261 7.30121L11.7767 7.67179C11.7532 7.84805 11.6034 7.97981 11.4264 7.97981H9.38998L9.39013 7.97793H9.04229L8.92141 7.98065C6.99506 8.05087 5.44989 9.61799 5.40144 11.5589C5.3977 11.6145 5.39468 11.6704 5.39339 11.7266C5.39166 11.7955 5.38735 12.2207 5.38461 12.491C5.38332 12.6163 5.28238 12.7173 5.15756 12.7182C4.69714 12.7273 4.26058 12.8333 3.86716 13.0172C2.90403 13.4683 2.2006 14.3847 2.044 15.4791C2.01769 15.6456 2.00345 15.8161 2.00345 15.9899C2.00345 17.7271 3.37467 19.1482 5.08682 19.2189V19.21H16.2744C16.3667 19.21 16.4596 19.2044 16.5503 19.1928C17.6469 19.0554 18.4737 18.1128 18.4737 17.0002V8.34215C18.4737 8.1409 18.6359 7.97793 18.8362 7.97793H19.7687C19.9689 7.97793 20.1311 8.1409 20.1311 8.34201L20.1312 13.0148V17.2041H20.1255C20.0285 19.0652 18.6125 20.6127 16.7555 20.8454C16.679 20.855 16.6015 20.8621 16.524 20.8671V20.8754H5.22083V20.8878C2.5329 20.8878 0.345947 18.6906 0.345947 15.9899C0.345947 13.8006 1.78316 11.9425 3.75917 11.3172C3.8778 10.0172 4.45211 8.81805 5.40173 7.9093C6.26938 7.07901 7.3901 6.57262 8.56331 6.45039C8.56331 6.45039 8.79899 6.41601 9.49567 6.40272H9.50459C9.70029 6.39911 9.92993 6.39708 10.203 6.39795L10.2024 6.40127L10.3325 6.40113C11.1883 3.15246 14.1142 0.856323 17.5182 0.856323ZM9.81944 13.6177C10.022 13.6177 10.1863 13.7827 10.1863 13.9863L10.1864 15.1468V16.5552C10.1864 16.7588 10.022 16.9237 9.81958 16.9237H8.89571C8.6931 16.9237 8.52889 16.7588 8.52889 16.5552L8.52874 13.9863C8.52874 13.7827 8.69296 13.6177 8.89556 13.6177H9.81944ZM13.1962 11.7261C13.4096 11.7261 13.5824 11.8999 13.5824 12.1142V14.0696L13.5826 16.5357C13.5826 16.7501 13.4096 16.9237 13.1964 16.9237H12.2301C12.0168 16.9237 11.8438 16.7501 11.8438 16.5357L11.8437 12.1142C11.8437 11.8999 12.0167 11.7261 12.2301 11.7261H13.1962ZM16.5266 9.86253C16.716 9.86253 16.8697 10.0168 16.8697 10.2072L16.8698 13.9561V16.579C16.8698 16.7694 16.7161 16.9237 16.5266 16.9237H15.5019C15.3124 16.9237 15.1588 16.7694 15.1588 16.579V13.7726L15.1587 10.2072C15.1587 10.0168 15.3124 9.86253 15.5019 9.86253H16.5266ZM87.4415 5.92899C87.5679 5.92899 87.6814 6.00605 87.7283 6.12388L91.5703 15.7571L95.3862 6.12434C95.4328 6.00636 95.5466 5.92899 95.6731 5.92899H98.2854C98.5067 5.92899 98.6561 6.15566 98.5697 6.36016L91.8971 22.1548C91.3161 23.5297 89.9727 24.4228 88.485 24.4228H86.5127C86.342 24.4228 86.2038 24.2839 86.2038 24.1127V22.0117C86.2038 21.8404 86.342 21.7016 86.5127 21.7016H88.0804C88.5705 21.7016 89.0144 21.4106 89.2114 20.9602L89.9392 19.2974L84.466 6.36032C84.3794 6.15582 84.5289 5.92899 84.7503 5.92899H87.4415ZM52.5607 5.66261C56.6106 5.66261 59.4957 8.6985 59.3427 13.1464C59.3374 13.2979 59.2273 13.4224 59.083 13.4458L59.0337 13.4498H48.5548C48.636 15.5117 50.2601 17.1396 52.642 17.1396C54.0947 17.1396 55.3234 16.5914 55.9712 15.3996C56.0178 15.3139 56.1035 15.2581 56.1984 15.2439L56.2464 15.2404H58.7282C58.9444 15.2404 59.0968 15.4588 59.0178 15.6607C58.1091 17.9831 55.8035 19.7715 52.5337 19.7715C48.5007 19.7715 45.6044 16.7869 45.6044 12.717C45.6044 8.7016 48.3653 5.66261 52.5607 5.66261ZM38.8287 5.50757C41.6107 5.50757 43.5853 6.9766 43.9621 9.21681C43.9938 9.40534 43.8466 9.57744 43.656 9.57744H41.2544C41.1222 9.57744 41.0053 9.49216 40.9627 9.36642C40.6177 8.34841 39.7931 7.89522 38.8015 7.89522C37.6353 7.89522 36.8217 8.4109 36.8217 9.27898C36.8217 10.1472 37.4726 10.6085 38.6387 10.9069L40.9167 11.5038C43.3846 12.1279 44.5234 13.5389 44.5234 15.601C44.5234 18.2327 42.2455 19.6164 39.2082 19.6164C36.1974 19.6164 33.7581 18.1004 33.4353 15.5678C33.4118 15.3836 33.5581 15.221 33.7429 15.221H36.2462C36.3878 15.221 36.5103 15.3188 36.5448 15.4568C36.8739 16.7682 38.0334 17.2289 39.2896 17.2289C40.5913 17.2289 41.4862 16.7404 41.4862 15.7908C41.4862 14.8411 40.8896 14.3529 39.4794 14L37.2557 13.4033C34.8963 12.7791 33.7845 11.2868 33.7845 9.30611C33.7845 7.02699 35.7912 5.50757 38.8287 5.50757ZM78.6706 5.50757C81.4528 5.50757 83.4274 6.9766 83.8041 9.21681C83.8357 9.40534 83.6886 9.57744 83.4982 9.57744H81.0964C80.9643 9.57744 80.8474 9.49216 80.8047 9.36642C80.4598 8.34841 79.635 7.89522 78.6435 7.89522C77.4774 7.89522 76.6639 8.4109 76.6639 9.27898C76.6639 10.1472 77.3148 10.6085 78.4807 10.9069L80.7586 11.5038C83.2265 12.1279 84.3656 13.5389 84.3656 15.601C84.3656 18.2327 82.0876 19.6164 79.0502 19.6164C76.0395 19.6164 73.6 18.1004 73.2773 15.5678C73.254 15.3836 73.4001 15.221 73.5849 15.221H76.0882C76.2299 15.221 76.3522 15.3188 76.387 15.4568C76.7161 16.7682 77.8753 17.2289 79.1316 17.2289C80.4333 17.2289 81.3283 16.7404 81.3283 15.7908C81.3283 14.8411 80.7316 14.3529 79.3215 14L77.0976 13.4033C74.7383 12.7791 73.6264 11.2868 73.6264 9.30611C73.6264 7.02699 75.6334 5.50757 78.6706 5.50757ZM63.7186 0.856323C63.8893 0.856323 64.0275 0.995241 64.0275 1.16641V15.3542C64.0275 16.0874 64.6196 16.6818 65.35 16.6818H65.552C65.6931 16.6818 65.8176 16.7776 65.8507 16.9153C66.0247 17.6439 66.3876 18.2986 66.9391 18.8791C67.1267 19.0765 66.9888 19.4031 66.717 19.4031H65.0486C62.8574 19.4031 61.0812 17.6198 61.0812 15.4199V1.16641C61.0812 0.995241 61.2196 0.856323 61.39 0.856323H63.7186ZM69.8958 0.85637C70.0664 0.85637 70.2046 0.995133 70.2046 1.16645V15.3541C70.2046 16.0874 70.7967 16.6819 71.5271 16.6819H71.7197C71.8647 16.6819 71.992 16.783 72.0207 16.9256C72.1732 17.6836 72.5161 18.3317 73.0492 18.8703C73.2451 19.068 73.1128 19.4032 72.835 19.4032H71.2255C69.0345 19.4032 67.2583 17.6199 67.2583 15.42V1.16645C67.2583 0.995133 67.3965 0.85637 67.5672 0.85637H69.8958ZM52.4795 8.15895C50.6545 8.15895 49.1136 9.19548 48.6655 11.1924L48.636 11.3333H56.1337C55.6735 9.13556 54.1306 8.15895 52.4795 8.15895Z" fill="#00127F"/>
</svg>
