<svg width="128" height="32" viewBox="0 0 128 32" fill="none" xmlns="http://www.w3.org/2000/svg">
<path d="M32.4628 25.48C32.4628 27.0793 31.8101 28.5322 30.7508 29.5821C29.6915 30.6321 28.2258 31.2792 26.6122 31.2792H6.14131C3.0374 31.2792 0.339967 28.9473 0.130578 25.8828C0.00740752 24.1248 0.684844 22.5254 1.83033 21.39C2.12594 21.097 2.44618 20.8406 2.80338 20.6208C3.7641 20.0104 4.77412 19.4121 5.82106 18.8139C7.89032 17.6419 9.89799 16.6285 11.8072 15.7617C12.1644 15.603 12.5831 15.8105 12.657 16.2012C12.7556 16.7506 13.0019 17.4953 13.6055 18.1791C13.6794 18.2645 13.7533 18.3378 13.8148 18.411C14.5538 19.1313 15.5639 19.4976 16.5985 19.5098C19.9364 19.5709 23.2867 19.6441 26.6246 19.7051C29.8516 19.6807 32.4628 22.2812 32.4628 25.48Z" fill="url(#paint0_linear_2257_1193)"/>
<path d="M0.229248 5.79922C0.229248 4.19987 0.882054 2.747 1.94132 1.69704C3.00059 0.64707 4.46634 0 6.07985 0H26.5632C29.6671 0 32.3646 2.3319 32.5738 5.39632C32.6972 7.1544 32.0195 8.75378 30.8741 9.8892C30.5785 10.1822 30.2583 10.4386 29.9011 10.6584C28.9403 11.2688 27.9304 11.867 26.8834 12.4653C24.8141 13.6373 22.8064 14.6507 20.8973 15.5175C20.5401 15.6762 20.1213 15.4687 20.0474 15.078C19.9489 14.5286 19.7025 13.7838 19.099 13.1002C19.0251 13.0147 18.9512 12.9414 18.8896 12.8682C18.1506 12.1479 17.1406 11.7816 16.1059 11.7694C12.768 11.7083 9.4178 11.6351 6.07985 11.574C2.85278 11.5862 0.229248 8.99797 0.229248 5.79922Z" fill="url(#paint1_linear_2257_1193)"/>
<path d="M46.596 15.7364C45.7151 15.7364 44.9811 15.4454 44.2959 14.8152C43.6598 14.1837 43.3172 13.3599 43.3172 12.2919V10.1091H47.1344V10.595C47.1344 11.0797 47.2322 11.3707 47.428 11.4681C47.6237 11.5643 47.9173 11.6137 48.4067 11.6137H58.439L49.6791 24.2742L48.7493 23.2556H58.3411V27.3302H42.2896L51.2941 14.2812L52.077 15.7364H46.596Z" fill="#343434"/>
<path d="M69.7433 27.7668C68.2751 27.7668 66.9538 27.4758 65.7304 26.8937C64.5559 26.3116 63.5771 25.3891 62.892 24.1768C62.2069 22.9645 61.8643 21.4119 61.8643 19.5201C61.8643 17.7257 62.2069 16.2211 62.941 14.9114C63.675 13.6017 64.6048 12.6324 65.8282 11.9047C67.0027 11.1771 68.2751 10.8367 69.5965 10.8367C71.1625 10.8367 72.337 11.0797 73.1689 11.6137C74.0009 12.1464 74.637 12.6804 75.1754 13.3106L74.9797 13.9421L75.469 11.6618H80.167V27.3783H75.0774V23.9832L75.469 25.05C75.4201 25.05 75.2733 25.1955 75.0286 25.4865C74.7838 25.7776 74.4413 26.0686 73.952 26.4571C73.4625 26.8443 72.9243 27.1354 72.1902 27.4264C71.505 27.6213 70.673 27.7668 69.7433 27.7668ZM71.1625 23.6922C71.7498 23.6922 72.288 23.5947 72.7775 23.4011C73.2668 23.2062 73.7072 22.9645 74.0498 22.6241C74.3924 22.285 74.7349 21.8484 74.9797 21.3144V17.4827C74.7838 16.9487 74.4902 16.5121 74.0988 16.1249C73.7072 15.7364 73.2668 15.4454 72.7284 15.2518C72.1902 15.0569 71.603 14.9607 70.9667 14.9607C70.2326 14.9607 69.5476 15.1544 68.9603 15.4935C68.324 15.882 67.8347 16.3666 67.4922 16.9981C67.1495 17.6283 66.9538 18.404 66.9538 19.229C66.9538 20.0541 67.1495 20.8298 67.5411 21.5093C67.9326 22.1876 68.422 22.7216 69.0581 23.1101C69.7433 23.4973 70.4284 23.6922 71.1625 23.6922Z" fill="#343434"/>
<path d="M89.9052 11.6618L90.3947 15.9794L90.2967 15.3479C90.7372 14.4267 91.3733 13.6017 92.2053 12.9715C92.9883 12.2919 93.7712 11.8073 94.6032 11.4682C95.3862 11.1278 95.9736 10.9341 96.414 10.9341L96.1693 15.9794C94.9948 15.8339 93.9671 16.0275 93.1351 16.5615C92.3031 17.0942 91.6181 17.7738 91.1776 18.6469C90.7372 19.52 90.4924 20.3932 90.4924 21.3144V27.4758H85.4519V11.7592H89.9052V11.6618Z" fill="#343434"/>
<path d="M100.085 6.08373C100.085 5.35611 100.379 4.72466 100.966 4.24C101.553 3.75535 102.189 3.51239 102.874 3.51239C103.56 3.51239 104.196 3.75535 104.734 4.24C105.321 4.72466 105.566 5.30676 105.566 6.08373C105.566 6.81135 105.272 7.44153 104.734 7.8781C104.196 8.31467 103.56 8.55763 102.874 8.55763C102.189 8.55763 101.553 8.31467 100.966 7.8781C100.379 7.39344 100.085 6.81135 100.085 6.08373ZM100.183 11.6617H105.272V27.3783H100.183V11.6617Z" fill="#343434"/>
<path d="M109.236 19.2771C109.236 17.6763 109.628 16.2211 110.362 14.9607C111.145 13.6991 112.173 12.6804 113.592 11.9528C114.962 11.2252 116.528 10.8367 118.339 10.8367C120.149 10.8367 121.715 11.2252 123.037 11.9528C124.358 12.6804 125.386 13.6991 126.12 14.9607C126.854 16.2211 127.196 17.6763 127.196 19.2771C127.196 20.8779 126.854 22.3331 126.12 23.5947C125.386 24.8563 124.407 25.875 123.037 26.6507C121.715 27.3783 120.101 27.7668 118.241 27.7668C116.479 27.7668 114.962 27.4264 113.592 26.7482C112.221 26.0686 111.145 25.098 110.362 23.8377C109.628 22.5761 109.236 21.0727 109.236 19.2771ZM114.375 19.3265C114.375 20.1502 114.522 20.8779 114.864 21.5574C115.207 22.2369 115.647 22.7216 116.234 23.1101C116.822 23.4973 117.458 23.6922 118.192 23.6922C118.975 23.6922 119.66 23.4973 120.247 23.1101C120.835 22.7216 121.275 22.1876 121.569 21.5574C121.862 20.8779 122.058 20.1502 122.058 19.3265C122.058 18.5014 121.911 17.7257 121.569 17.0942C121.275 16.4641 120.786 15.9301 120.247 15.5428C119.66 15.1543 118.975 14.9607 118.192 14.9607C117.458 14.9607 116.822 15.1543 116.234 15.5428C115.647 15.9301 115.207 16.4641 114.864 17.0942C114.522 17.7257 114.375 18.5014 114.375 19.3265Z" fill="#343434"/>
<defs>
<linearGradient id="paint0_linear_2257_1193" x1="0.116106" y1="25.2805" x2="32.2522" y2="24.6378" gradientUnits="userSpaceOnUse">
<stop stop-color="#4848D4"/>
<stop offset="1" stop-color="#5858EE"/>
</linearGradient>
<linearGradient id="paint1_linear_2257_1193" x1="0.116165" y1="6.42722" x2="32.6807" y2="6.42721" gradientUnits="userSpaceOnUse">
<stop stop-color="#EB9783"/>
<stop offset="1" stop-color="#F6B3A4"/>
</linearGradient>
</defs>
</svg>
